<mxfile host="app.diagrams.net" modified="2023-07-12T02:12:08.339Z" agent="Mozilla/5.0 (Windows NT 10.0; Win64; x64) AppleWebKit/537.36 (KHTML, like Gecko) Chrome/114.0.0.0 Safari/537.36" etag="1vrv6ZnIkuSYnE7GkzQm" version="21.6.1" type="github" pages="4">
  <diagram name="Page-1" id="zPdOzFZ-utiKLcltVM34">
    <mxGraphModel dx="1793" dy="955" grid="1" gridSize="10" guides="1" tooltips="1" connect="1" arrows="1" fold="1" page="1" pageScale="1" pageWidth="850" pageHeight="1100" math="0" shadow="0">
      <root>
        <mxCell id="0" />
        <mxCell id="1" parent="0" />
        <mxCell id="gUp6JHtbZ-Vy4dL3rKHU-1" value="เริ่ม" style="ellipse;whiteSpace=wrap;html=1;" vertex="1" parent="1">
          <mxGeometry x="70" y="40" width="80" height="40" as="geometry" />
        </mxCell>
        <mxCell id="gUp6JHtbZ-Vy4dL3rKHU-2" value="ตรวจสอบสิทธิ์การใช้งาน" style="rounded=1;whiteSpace=wrap;html=1;" vertex="1" parent="1">
          <mxGeometry x="40" y="120" width="140" height="30" as="geometry" />
        </mxCell>
        <mxCell id="gUp6JHtbZ-Vy4dL3rKHU-3" value="" style="edgeStyle=orthogonalEdgeStyle;rounded=0;orthogonalLoop=1;jettySize=auto;html=1;" edge="1" parent="1" source="gUp6JHtbZ-Vy4dL3rKHU-1" target="gUp6JHtbZ-Vy4dL3rKHU-2">
          <mxGeometry relative="1" as="geometry" />
        </mxCell>
        <mxCell id="gUp6JHtbZ-Vy4dL3rKHU-4" value="มี ?" style="rhombus;whiteSpace=wrap;html=1;" vertex="1" parent="1">
          <mxGeometry x="80" y="180" width="60" height="60" as="geometry" />
        </mxCell>
        <mxCell id="gUp6JHtbZ-Vy4dL3rKHU-5" value="" style="edgeStyle=orthogonalEdgeStyle;rounded=0;orthogonalLoop=1;jettySize=auto;html=1;" edge="1" parent="1" source="gUp6JHtbZ-Vy4dL3rKHU-2" target="gUp6JHtbZ-Vy4dL3rKHU-4">
          <mxGeometry relative="1" as="geometry" />
        </mxCell>
        <mxCell id="gUp6JHtbZ-Vy4dL3rKHU-6" style="edgeStyle=orthogonalEdgeStyle;rounded=0;orthogonalLoop=1;jettySize=auto;html=1;entryX=-0.022;entryY=0.676;entryDx=0;entryDy=0;entryPerimeter=0;" edge="1" parent="1" source="gUp6JHtbZ-Vy4dL3rKHU-4" target="gUp6JHtbZ-Vy4dL3rKHU-20">
          <mxGeometry relative="1" as="geometry">
            <Array as="points">
              <mxPoint x="110" y="644" />
            </Array>
            <mxPoint x="265" y="750" as="targetPoint" />
          </mxGeometry>
        </mxCell>
        <mxCell id="gUp6JHtbZ-Vy4dL3rKHU-7" value="ไม่" style="edgeLabel;html=1;align=center;verticalAlign=middle;resizable=0;points=[];" vertex="1" connectable="0" parent="gUp6JHtbZ-Vy4dL3rKHU-6">
          <mxGeometry x="-0.8925" y="1" relative="1" as="geometry">
            <mxPoint as="offset" />
          </mxGeometry>
        </mxCell>
        <mxCell id="gUp6JHtbZ-Vy4dL3rKHU-8" value="ตรวจสอบ Account &lt;br&gt;สถานะการใช้งาน" style="rounded=1;whiteSpace=wrap;html=1;" vertex="1" parent="1">
          <mxGeometry x="256.35" y="189" width="170" height="40" as="geometry" />
        </mxCell>
        <mxCell id="gUp6JHtbZ-Vy4dL3rKHU-9" value="" style="edgeStyle=orthogonalEdgeStyle;rounded=0;orthogonalLoop=1;jettySize=auto;html=1;" edge="1" parent="1" source="gUp6JHtbZ-Vy4dL3rKHU-4" target="gUp6JHtbZ-Vy4dL3rKHU-8">
          <mxGeometry relative="1" as="geometry">
            <Array as="points">
              <mxPoint x="220" y="210" />
              <mxPoint x="220" y="210" />
            </Array>
          </mxGeometry>
        </mxCell>
        <mxCell id="gUp6JHtbZ-Vy4dL3rKHU-10" value="ใช่" style="edgeLabel;html=1;align=center;verticalAlign=middle;resizable=0;points=[];" vertex="1" connectable="0" parent="gUp6JHtbZ-Vy4dL3rKHU-9">
          <mxGeometry x="-0.7797" y="-1" relative="1" as="geometry">
            <mxPoint as="offset" />
          </mxGeometry>
        </mxCell>
        <mxCell id="gUp6JHtbZ-Vy4dL3rKHU-11" value="มีใน&lt;br&gt;ระบบ &lt;br&gt;?" style="rhombus;whiteSpace=wrap;html=1;" vertex="1" parent="1">
          <mxGeometry x="303.85" y="268" width="75" height="70" as="geometry" />
        </mxCell>
        <mxCell id="gUp6JHtbZ-Vy4dL3rKHU-12" value="" style="edgeStyle=orthogonalEdgeStyle;rounded=0;orthogonalLoop=1;jettySize=auto;html=1;" edge="1" parent="1" source="gUp6JHtbZ-Vy4dL3rKHU-8" target="gUp6JHtbZ-Vy4dL3rKHU-11">
          <mxGeometry relative="1" as="geometry" />
        </mxCell>
        <mxCell id="gUp6JHtbZ-Vy4dL3rKHU-13" value="status&lt;br style=&quot;border-color: var(--border-color);&quot;&gt;= 1 ?" style="rhombus;whiteSpace=wrap;html=1;" vertex="1" parent="1">
          <mxGeometry x="311.35" y="388" width="60" height="60" as="geometry" />
        </mxCell>
        <mxCell id="gUp6JHtbZ-Vy4dL3rKHU-14" value="" style="edgeStyle=orthogonalEdgeStyle;rounded=0;orthogonalLoop=1;jettySize=auto;html=1;" edge="1" parent="1" source="gUp6JHtbZ-Vy4dL3rKHU-11" target="gUp6JHtbZ-Vy4dL3rKHU-13">
          <mxGeometry relative="1" as="geometry" />
        </mxCell>
        <mxCell id="gUp6JHtbZ-Vy4dL3rKHU-15" value="ใช่" style="edgeLabel;html=1;align=center;verticalAlign=middle;resizable=0;points=[];" vertex="1" connectable="0" parent="gUp6JHtbZ-Vy4dL3rKHU-14">
          <mxGeometry x="-0.3254" y="2" relative="1" as="geometry">
            <mxPoint x="-2" as="offset" />
          </mxGeometry>
        </mxCell>
        <mxCell id="gUp6JHtbZ-Vy4dL3rKHU-16" value="Locked&lt;br style=&quot;border-color: var(--border-color);&quot;&gt;= 1 ?&amp;nbsp;" style="rhombus;whiteSpace=wrap;html=1;" vertex="1" parent="1">
          <mxGeometry x="311.35" y="518" width="60" height="60" as="geometry" />
        </mxCell>
        <mxCell id="gUp6JHtbZ-Vy4dL3rKHU-17" value="" style="edgeStyle=orthogonalEdgeStyle;rounded=0;orthogonalLoop=1;jettySize=auto;html=1;" edge="1" parent="1" source="gUp6JHtbZ-Vy4dL3rKHU-13" target="gUp6JHtbZ-Vy4dL3rKHU-16">
          <mxGeometry relative="1" as="geometry" />
        </mxCell>
        <mxCell id="gUp6JHtbZ-Vy4dL3rKHU-18" value="ไม่" style="edgeLabel;html=1;align=center;verticalAlign=middle;resizable=0;points=[];" vertex="1" connectable="0" parent="gUp6JHtbZ-Vy4dL3rKHU-17">
          <mxGeometry x="-0.3745" relative="1" as="geometry">
            <mxPoint as="offset" />
          </mxGeometry>
        </mxCell>
        <mxCell id="gUp6JHtbZ-Vy4dL3rKHU-19" style="edgeStyle=orthogonalEdgeStyle;rounded=0;orthogonalLoop=1;jettySize=auto;html=1;entryX=0;entryY=0.5;entryDx=0;entryDy=0;" edge="1" parent="1" source="gUp6JHtbZ-Vy4dL3rKHU-20" target="gUp6JHtbZ-Vy4dL3rKHU-64">
          <mxGeometry relative="1" as="geometry">
            <Array as="points">
              <mxPoint x="239" y="1230" />
            </Array>
          </mxGeometry>
        </mxCell>
        <mxCell id="gUp6JHtbZ-Vy4dL3rKHU-20" value="1" style="ellipse;whiteSpace=wrap;html=1;aspect=fixed;" vertex="1" parent="1">
          <mxGeometry x="213.75" y="610" width="50" height="50" as="geometry" />
        </mxCell>
        <mxCell id="gUp6JHtbZ-Vy4dL3rKHU-21" style="edgeStyle=orthogonalEdgeStyle;rounded=0;orthogonalLoop=1;jettySize=auto;html=1;" edge="1" parent="1" source="gUp6JHtbZ-Vy4dL3rKHU-22" target="gUp6JHtbZ-Vy4dL3rKHU-20">
          <mxGeometry relative="1" as="geometry">
            <Array as="points">
              <mxPoint x="140" y="303" />
              <mxPoint x="140" y="630" />
            </Array>
          </mxGeometry>
        </mxCell>
        <mxCell id="gUp6JHtbZ-Vy4dL3rKHU-22" value="rerturn Error Code&amp;nbsp;001&lt;span style=&quot;font-size: medium; text-align: start;&quot;&gt;&lt;/span&gt;" style="rounded=1;whiteSpace=wrap;html=1;" vertex="1" parent="1">
          <mxGeometry x="150" y="283" width="77.5" height="40" as="geometry" />
        </mxCell>
        <mxCell id="gUp6JHtbZ-Vy4dL3rKHU-23" style="edgeStyle=orthogonalEdgeStyle;rounded=0;orthogonalLoop=1;jettySize=auto;html=1;" edge="1" parent="1" source="gUp6JHtbZ-Vy4dL3rKHU-11" target="gUp6JHtbZ-Vy4dL3rKHU-22">
          <mxGeometry relative="1" as="geometry">
            <mxPoint x="240.10000000000002" y="408" as="targetPoint" />
          </mxGeometry>
        </mxCell>
        <mxCell id="gUp6JHtbZ-Vy4dL3rKHU-24" value="ไม่" style="edgeLabel;html=1;align=center;verticalAlign=middle;resizable=0;points=[];" vertex="1" connectable="0" parent="gUp6JHtbZ-Vy4dL3rKHU-23">
          <mxGeometry x="-0.6573" y="2" relative="1" as="geometry">
            <mxPoint as="offset" />
          </mxGeometry>
        </mxCell>
        <mxCell id="gUp6JHtbZ-Vy4dL3rKHU-25" style="edgeStyle=orthogonalEdgeStyle;rounded=0;orthogonalLoop=1;jettySize=auto;html=1;entryX=0.5;entryY=0;entryDx=0;entryDy=0;" edge="1" parent="1" source="gUp6JHtbZ-Vy4dL3rKHU-26" target="gUp6JHtbZ-Vy4dL3rKHU-20">
          <mxGeometry relative="1" as="geometry" />
        </mxCell>
        <mxCell id="gUp6JHtbZ-Vy4dL3rKHU-26" value="rerturn Error Code&amp;nbsp;011&lt;span style=&quot;font-size: medium; text-align: start;&quot;&gt;&lt;/span&gt;" style="rounded=1;whiteSpace=wrap;html=1;" vertex="1" parent="1">
          <mxGeometry x="200" y="528" width="77.5" height="40" as="geometry" />
        </mxCell>
        <mxCell id="gUp6JHtbZ-Vy4dL3rKHU-27" value="" style="edgeStyle=orthogonalEdgeStyle;rounded=0;orthogonalLoop=1;jettySize=auto;html=1;" edge="1" parent="1" source="gUp6JHtbZ-Vy4dL3rKHU-16" target="gUp6JHtbZ-Vy4dL3rKHU-26">
          <mxGeometry relative="1" as="geometry" />
        </mxCell>
        <mxCell id="gUp6JHtbZ-Vy4dL3rKHU-28" value="ใช่" style="edgeLabel;html=1;align=center;verticalAlign=middle;resizable=0;points=[];" vertex="1" connectable="0" parent="gUp6JHtbZ-Vy4dL3rKHU-27">
          <mxGeometry x="-0.4608" y="1" relative="1" as="geometry">
            <mxPoint as="offset" />
          </mxGeometry>
        </mxCell>
        <mxCell id="gUp6JHtbZ-Vy4dL3rKHU-29" style="edgeStyle=orthogonalEdgeStyle;rounded=0;orthogonalLoop=1;jettySize=auto;html=1;" edge="1" parent="1" source="gUp6JHtbZ-Vy4dL3rKHU-30" target="gUp6JHtbZ-Vy4dL3rKHU-20">
          <mxGeometry relative="1" as="geometry">
            <mxPoint x="240" y="610" as="targetPoint" />
            <Array as="points">
              <mxPoint x="180" y="418" />
              <mxPoint x="180" y="620" />
            </Array>
          </mxGeometry>
        </mxCell>
        <mxCell id="gUp6JHtbZ-Vy4dL3rKHU-30" value="rerturn Error Code&amp;nbsp;004&lt;span style=&quot;font-size: medium; text-align: start;&quot;&gt;&lt;/span&gt;" style="rounded=1;whiteSpace=wrap;html=1;" vertex="1" parent="1">
          <mxGeometry x="200" y="398" width="77.5" height="40" as="geometry" />
        </mxCell>
        <mxCell id="gUp6JHtbZ-Vy4dL3rKHU-31" value="" style="edgeStyle=orthogonalEdgeStyle;rounded=0;orthogonalLoop=1;jettySize=auto;html=1;" edge="1" parent="1" source="gUp6JHtbZ-Vy4dL3rKHU-13" target="gUp6JHtbZ-Vy4dL3rKHU-30">
          <mxGeometry relative="1" as="geometry" />
        </mxCell>
        <mxCell id="gUp6JHtbZ-Vy4dL3rKHU-32" value="ใช่" style="edgeLabel;html=1;align=center;verticalAlign=middle;resizable=0;points=[];" vertex="1" connectable="0" parent="gUp6JHtbZ-Vy4dL3rKHU-31">
          <mxGeometry x="-0.4608" y="2" relative="1" as="geometry">
            <mxPoint as="offset" />
          </mxGeometry>
        </mxCell>
        <mxCell id="gUp6JHtbZ-Vy4dL3rKHU-33" value="" style="edgeStyle=orthogonalEdgeStyle;rounded=0;orthogonalLoop=1;jettySize=auto;html=1;entryX=0.1;entryY=0.5;entryDx=0;entryDy=0;entryPerimeter=0;" edge="1" parent="1" source="gUp6JHtbZ-Vy4dL3rKHU-16" target="gUp6JHtbZ-Vy4dL3rKHU-38">
          <mxGeometry relative="1" as="geometry">
            <mxPoint x="414" y="548" as="targetPoint" />
          </mxGeometry>
        </mxCell>
        <mxCell id="gUp6JHtbZ-Vy4dL3rKHU-34" value="" style="edgeStyle=orthogonalEdgeStyle;rounded=0;orthogonalLoop=1;jettySize=auto;html=1;" edge="1" parent="1" source="gUp6JHtbZ-Vy4dL3rKHU-38">
          <mxGeometry relative="1" as="geometry">
            <mxPoint x="530" y="548" as="targetPoint" />
          </mxGeometry>
        </mxCell>
        <mxCell id="gUp6JHtbZ-Vy4dL3rKHU-35" value="ไม่" style="edgeLabel;html=1;align=center;verticalAlign=middle;resizable=0;points=[];" vertex="1" connectable="0" parent="gUp6JHtbZ-Vy4dL3rKHU-34">
          <mxGeometry x="-0.3115" y="3" relative="1" as="geometry">
            <mxPoint as="offset" />
          </mxGeometry>
        </mxCell>
        <mxCell id="gUp6JHtbZ-Vy4dL3rKHU-36" style="edgeStyle=orthogonalEdgeStyle;rounded=0;orthogonalLoop=1;jettySize=auto;html=1;entryX=0.5;entryY=0;entryDx=0;entryDy=0;" edge="1" parent="1" source="gUp6JHtbZ-Vy4dL3rKHU-38" target="gUp6JHtbZ-Vy4dL3rKHU-61">
          <mxGeometry relative="1" as="geometry">
            <mxPoint x="447" y="940" as="targetPoint" />
          </mxGeometry>
        </mxCell>
        <mxCell id="gUp6JHtbZ-Vy4dL3rKHU-37" value="ใช่" style="edgeLabel;html=1;align=center;verticalAlign=middle;resizable=0;points=[];" vertex="1" connectable="0" parent="gUp6JHtbZ-Vy4dL3rKHU-36">
          <mxGeometry x="-0.3215" y="2" relative="1" as="geometry">
            <mxPoint as="offset" />
          </mxGeometry>
        </mxCell>
        <mxCell id="gUp6JHtbZ-Vy4dL3rKHU-38" value="Super&lt;br&gt;Admin ?" style="rhombus;whiteSpace=wrap;html=1;" vertex="1" parent="1">
          <mxGeometry x="414" y="512" width="66" height="72" as="geometry" />
        </mxCell>
        <mxCell id="gUp6JHtbZ-Vy4dL3rKHU-39" value="" style="edgeStyle=orthogonalEdgeStyle;rounded=0;orthogonalLoop=1;jettySize=auto;html=1;" edge="1" parent="1" source="gUp6JHtbZ-Vy4dL3rKHU-40" target="gUp6JHtbZ-Vy4dL3rKHU-45">
          <mxGeometry relative="1" as="geometry" />
        </mxCell>
        <mxCell id="gUp6JHtbZ-Vy4dL3rKHU-40" value="ตรวจสอบสิทธิ์การใช้งาน Company นี้ไหม&lt;span style=&quot;font-size: medium; text-align: start;&quot;&gt;&lt;/span&gt;" style="rounded=1;whiteSpace=wrap;html=1;" vertex="1" parent="1">
          <mxGeometry x="530" y="528" width="110" height="42" as="geometry" />
        </mxCell>
        <mxCell id="gUp6JHtbZ-Vy4dL3rKHU-41" value="" style="edgeStyle=orthogonalEdgeStyle;rounded=0;orthogonalLoop=1;jettySize=auto;html=1;" edge="1" parent="1" source="gUp6JHtbZ-Vy4dL3rKHU-45" target="gUp6JHtbZ-Vy4dL3rKHU-49">
          <mxGeometry relative="1" as="geometry" />
        </mxCell>
        <mxCell id="gUp6JHtbZ-Vy4dL3rKHU-42" value="ใช่" style="edgeLabel;html=1;align=center;verticalAlign=middle;resizable=0;points=[];" vertex="1" connectable="0" parent="gUp6JHtbZ-Vy4dL3rKHU-41">
          <mxGeometry x="-0.2859" relative="1" as="geometry">
            <mxPoint as="offset" />
          </mxGeometry>
        </mxCell>
        <mxCell id="gUp6JHtbZ-Vy4dL3rKHU-43" style="edgeStyle=orthogonalEdgeStyle;rounded=0;orthogonalLoop=1;jettySize=auto;html=1;" edge="1" parent="1" source="gUp6JHtbZ-Vy4dL3rKHU-45" target="gUp6JHtbZ-Vy4dL3rKHU-51">
          <mxGeometry relative="1" as="geometry">
            <mxPoint x="680" y="645.9999999999998" as="targetPoint" />
          </mxGeometry>
        </mxCell>
        <mxCell id="gUp6JHtbZ-Vy4dL3rKHU-44" value="ไม่" style="edgeLabel;html=1;align=center;verticalAlign=middle;resizable=0;points=[];" vertex="1" connectable="0" parent="gUp6JHtbZ-Vy4dL3rKHU-43">
          <mxGeometry x="-0.0865" y="2" relative="1" as="geometry">
            <mxPoint as="offset" />
          </mxGeometry>
        </mxCell>
        <mxCell id="gUp6JHtbZ-Vy4dL3rKHU-45" value="มี ?" style="rhombus;whiteSpace=wrap;html=1;" vertex="1" parent="1">
          <mxGeometry x="552" y="610" width="66" height="72" as="geometry" />
        </mxCell>
        <mxCell id="gUp6JHtbZ-Vy4dL3rKHU-46" value="ใช่" style="edgeStyle=orthogonalEdgeStyle;rounded=0;orthogonalLoop=1;jettySize=auto;html=1;" edge="1" parent="1" source="gUp6JHtbZ-Vy4dL3rKHU-49" target="gUp6JHtbZ-Vy4dL3rKHU-55">
          <mxGeometry relative="1" as="geometry" />
        </mxCell>
        <mxCell id="gUp6JHtbZ-Vy4dL3rKHU-47" value="" style="edgeStyle=orthogonalEdgeStyle;rounded=0;orthogonalLoop=1;jettySize=auto;html=1;" edge="1" parent="1" source="gUp6JHtbZ-Vy4dL3rKHU-49" target="gUp6JHtbZ-Vy4dL3rKHU-57">
          <mxGeometry relative="1" as="geometry" />
        </mxCell>
        <mxCell id="gUp6JHtbZ-Vy4dL3rKHU-48" value="ไม่" style="edgeLabel;html=1;align=center;verticalAlign=middle;resizable=0;points=[];" vertex="1" connectable="0" parent="gUp6JHtbZ-Vy4dL3rKHU-47">
          <mxGeometry x="-0.1127" relative="1" as="geometry">
            <mxPoint as="offset" />
          </mxGeometry>
        </mxCell>
        <mxCell id="gUp6JHtbZ-Vy4dL3rKHU-49" value="Company &lt;br&gt;มีในระบบ&lt;br&gt;ไหม ?" style="rhombus;whiteSpace=wrap;html=1;" vertex="1" parent="1">
          <mxGeometry x="540" y="740" width="90" height="80" as="geometry" />
        </mxCell>
        <mxCell id="gUp6JHtbZ-Vy4dL3rKHU-50" style="edgeStyle=orthogonalEdgeStyle;rounded=0;orthogonalLoop=1;jettySize=auto;html=1;entryX=1;entryY=0.5;entryDx=0;entryDy=0;" edge="1" parent="1" source="gUp6JHtbZ-Vy4dL3rKHU-51" target="gUp6JHtbZ-Vy4dL3rKHU-63">
          <mxGeometry relative="1" as="geometry">
            <mxPoint x="780" y="800" as="targetPoint" />
            <Array as="points">
              <mxPoint x="778" y="646" />
              <mxPoint x="778" y="1015" />
            </Array>
          </mxGeometry>
        </mxCell>
        <mxCell id="gUp6JHtbZ-Vy4dL3rKHU-51" value="rerturn Error Code&amp;nbsp;002&lt;span style=&quot;font-size: medium; text-align: start;&quot;&gt;&lt;/span&gt;" style="rounded=1;whiteSpace=wrap;html=1;" vertex="1" parent="1">
          <mxGeometry x="680" y="626" width="77.5" height="40" as="geometry" />
        </mxCell>
        <mxCell id="gUp6JHtbZ-Vy4dL3rKHU-52" value="" style="edgeStyle=orthogonalEdgeStyle;rounded=0;orthogonalLoop=1;jettySize=auto;html=1;" edge="1" parent="1" source="gUp6JHtbZ-Vy4dL3rKHU-55" target="gUp6JHtbZ-Vy4dL3rKHU-59">
          <mxGeometry relative="1" as="geometry" />
        </mxCell>
        <mxCell id="gUp6JHtbZ-Vy4dL3rKHU-53" value="ไม่" style="edgeLabel;html=1;align=center;verticalAlign=middle;resizable=0;points=[];" vertex="1" connectable="0" parent="gUp6JHtbZ-Vy4dL3rKHU-52">
          <mxGeometry x="-0.2152" y="2" relative="1" as="geometry">
            <mxPoint as="offset" />
          </mxGeometry>
        </mxCell>
        <mxCell id="gUp6JHtbZ-Vy4dL3rKHU-54" style="edgeStyle=orthogonalEdgeStyle;rounded=0;orthogonalLoop=1;jettySize=auto;html=1;entryX=1;entryY=0.5;entryDx=0;entryDy=0;" edge="1" parent="1" source="gUp6JHtbZ-Vy4dL3rKHU-55" target="gUp6JHtbZ-Vy4dL3rKHU-61">
          <mxGeometry relative="1" as="geometry">
            <Array as="points">
              <mxPoint x="585" y="980" />
            </Array>
          </mxGeometry>
        </mxCell>
        <mxCell id="gUp6JHtbZ-Vy4dL3rKHU-55" value="Company &lt;br&gt;Active ?" style="rhombus;whiteSpace=wrap;html=1;" vertex="1" parent="1">
          <mxGeometry x="540" y="860" width="90" height="80" as="geometry" />
        </mxCell>
        <mxCell id="gUp6JHtbZ-Vy4dL3rKHU-56" style="edgeStyle=orthogonalEdgeStyle;rounded=0;orthogonalLoop=1;jettySize=auto;html=1;entryX=1;entryY=0;entryDx=0;entryDy=0;" edge="1" parent="1" source="gUp6JHtbZ-Vy4dL3rKHU-57" target="gUp6JHtbZ-Vy4dL3rKHU-63">
          <mxGeometry relative="1" as="geometry">
            <Array as="points">
              <mxPoint x="770" y="780" />
              <mxPoint x="770" y="997" />
            </Array>
          </mxGeometry>
        </mxCell>
        <mxCell id="gUp6JHtbZ-Vy4dL3rKHU-57" value="rerturn Error Code&amp;nbsp;007&lt;span style=&quot;font-size: medium; text-align: start;&quot;&gt;&lt;/span&gt;" style="rounded=1;whiteSpace=wrap;html=1;" vertex="1" parent="1">
          <mxGeometry x="680" y="760" width="77.5" height="40" as="geometry" />
        </mxCell>
        <mxCell id="gUp6JHtbZ-Vy4dL3rKHU-58" style="edgeStyle=orthogonalEdgeStyle;rounded=0;orthogonalLoop=1;jettySize=auto;html=1;" edge="1" parent="1" source="gUp6JHtbZ-Vy4dL3rKHU-59" target="gUp6JHtbZ-Vy4dL3rKHU-63">
          <mxGeometry relative="1" as="geometry" />
        </mxCell>
        <mxCell id="gUp6JHtbZ-Vy4dL3rKHU-59" value="rerturn Error Code&amp;nbsp;051&lt;span style=&quot;font-size: medium; text-align: start;&quot;&gt;&lt;/span&gt;" style="rounded=1;whiteSpace=wrap;html=1;" vertex="1" parent="1">
          <mxGeometry x="680" y="880" width="77.5" height="40" as="geometry" />
        </mxCell>
        <mxCell id="gUp6JHtbZ-Vy4dL3rKHU-60" value="" style="edgeStyle=orthogonalEdgeStyle;rounded=0;orthogonalLoop=1;jettySize=auto;html=1;" edge="1" parent="1" source="gUp6JHtbZ-Vy4dL3rKHU-61" target="gUp6JHtbZ-Vy4dL3rKHU-66">
          <mxGeometry relative="1" as="geometry" />
        </mxCell>
        <mxCell id="gUp6JHtbZ-Vy4dL3rKHU-61" value="ดึงหัวข้อการกำกับดูแลกิจการ" style="rounded=1;whiteSpace=wrap;html=1;" vertex="1" parent="1">
          <mxGeometry x="387" y="950" width="120" height="40" as="geometry" />
        </mxCell>
        <mxCell id="gUp6JHtbZ-Vy4dL3rKHU-62" style="edgeStyle=orthogonalEdgeStyle;rounded=0;orthogonalLoop=1;jettySize=auto;html=1;" edge="1" parent="1" source="gUp6JHtbZ-Vy4dL3rKHU-63" target="gUp6JHtbZ-Vy4dL3rKHU-64">
          <mxGeometry relative="1" as="geometry">
            <Array as="points">
              <mxPoint x="719" y="1230" />
            </Array>
          </mxGeometry>
        </mxCell>
        <mxCell id="gUp6JHtbZ-Vy4dL3rKHU-63" value="2" style="ellipse;whiteSpace=wrap;html=1;aspect=fixed;" vertex="1" parent="1">
          <mxGeometry x="693.75" y="990" width="50" height="50" as="geometry" />
        </mxCell>
        <mxCell id="gUp6JHtbZ-Vy4dL3rKHU-64" value="สิ้นสุด" style="ellipse;whiteSpace=wrap;html=1;" vertex="1" parent="1">
          <mxGeometry x="395.5" y="1200" width="103" height="60" as="geometry" />
        </mxCell>
        <mxCell id="gUp6JHtbZ-Vy4dL3rKHU-65" style="edgeStyle=orthogonalEdgeStyle;rounded=0;orthogonalLoop=1;jettySize=auto;html=1;" edge="1" parent="1" source="gUp6JHtbZ-Vy4dL3rKHU-66" target="gUp6JHtbZ-Vy4dL3rKHU-64">
          <mxGeometry relative="1" as="geometry">
            <Array as="points">
              <mxPoint x="447" y="1140" />
              <mxPoint x="447" y="1140" />
            </Array>
          </mxGeometry>
        </mxCell>
        <mxCell id="gUp6JHtbZ-Vy4dL3rKHU-66" value="ส่งกลับหัวข้อการกำกับดูแลกิจการ" style="rounded=1;whiteSpace=wrap;html=1;" vertex="1" parent="1">
          <mxGeometry x="387" y="1060" width="120" height="40" as="geometry" />
        </mxCell>
      </root>
    </mxGraphModel>
  </diagram>
  <diagram id="kO4VrdqyzT4pAKB2KMgu" name="Page-2">
    <mxGraphModel dx="1687" dy="899" grid="1" gridSize="10" guides="1" tooltips="1" connect="1" arrows="1" fold="1" page="1" pageScale="1" pageWidth="850" pageHeight="1100" math="0" shadow="0">
      <root>
        <mxCell id="0" />
        <mxCell id="1" parent="0" />
        <mxCell id="0yKf3yfJQh01o-Jssx-y-1" value="เริ่ม" style="ellipse;whiteSpace=wrap;html=1;" vertex="1" parent="1">
          <mxGeometry x="75" y="20" width="80" height="40" as="geometry" />
        </mxCell>
        <mxCell id="0yKf3yfJQh01o-Jssx-y-2" value="ตรวจสอบสิทธิ์การใช้งาน" style="rounded=1;whiteSpace=wrap;html=1;" vertex="1" parent="1">
          <mxGeometry x="45" y="100" width="140" height="30" as="geometry" />
        </mxCell>
        <mxCell id="0yKf3yfJQh01o-Jssx-y-3" value="" style="edgeStyle=orthogonalEdgeStyle;rounded=0;orthogonalLoop=1;jettySize=auto;html=1;" edge="1" parent="1" source="0yKf3yfJQh01o-Jssx-y-1" target="0yKf3yfJQh01o-Jssx-y-2">
          <mxGeometry relative="1" as="geometry" />
        </mxCell>
        <mxCell id="0yKf3yfJQh01o-Jssx-y-4" value="มี ?" style="rhombus;whiteSpace=wrap;html=1;" vertex="1" parent="1">
          <mxGeometry x="85" y="160" width="60" height="60" as="geometry" />
        </mxCell>
        <mxCell id="0yKf3yfJQh01o-Jssx-y-5" value="" style="edgeStyle=orthogonalEdgeStyle;rounded=0;orthogonalLoop=1;jettySize=auto;html=1;" edge="1" parent="1" source="0yKf3yfJQh01o-Jssx-y-2" target="0yKf3yfJQh01o-Jssx-y-4">
          <mxGeometry relative="1" as="geometry" />
        </mxCell>
        <mxCell id="0yKf3yfJQh01o-Jssx-y-6" style="edgeStyle=orthogonalEdgeStyle;rounded=0;orthogonalLoop=1;jettySize=auto;html=1;entryX=-0.022;entryY=0.676;entryDx=0;entryDy=0;entryPerimeter=0;" edge="1" parent="1" source="0yKf3yfJQh01o-Jssx-y-4" target="0yKf3yfJQh01o-Jssx-y-19">
          <mxGeometry relative="1" as="geometry">
            <Array as="points">
              <mxPoint x="115" y="624" />
            </Array>
            <mxPoint x="270" y="730" as="targetPoint" />
          </mxGeometry>
        </mxCell>
        <mxCell id="0yKf3yfJQh01o-Jssx-y-7" value="ไม่" style="edgeLabel;html=1;align=center;verticalAlign=middle;resizable=0;points=[];" vertex="1" connectable="0" parent="0yKf3yfJQh01o-Jssx-y-6">
          <mxGeometry x="-0.8925" y="1" relative="1" as="geometry">
            <mxPoint as="offset" />
          </mxGeometry>
        </mxCell>
        <mxCell id="0yKf3yfJQh01o-Jssx-y-8" value="ตรวจสอบ Account &lt;br&gt;สถานะการใช้งาน" style="rounded=1;whiteSpace=wrap;html=1;" vertex="1" parent="1">
          <mxGeometry x="261.35" y="169" width="170" height="40" as="geometry" />
        </mxCell>
        <mxCell id="0yKf3yfJQh01o-Jssx-y-9" value="" style="edgeStyle=orthogonalEdgeStyle;rounded=0;orthogonalLoop=1;jettySize=auto;html=1;" edge="1" parent="1" source="0yKf3yfJQh01o-Jssx-y-4" target="0yKf3yfJQh01o-Jssx-y-8">
          <mxGeometry relative="1" as="geometry">
            <Array as="points">
              <mxPoint x="225" y="190" />
              <mxPoint x="225" y="190" />
            </Array>
          </mxGeometry>
        </mxCell>
        <mxCell id="0yKf3yfJQh01o-Jssx-y-10" value="ใช่" style="edgeLabel;html=1;align=center;verticalAlign=middle;resizable=0;points=[];" vertex="1" connectable="0" parent="0yKf3yfJQh01o-Jssx-y-9">
          <mxGeometry x="-0.7797" y="-1" relative="1" as="geometry">
            <mxPoint as="offset" />
          </mxGeometry>
        </mxCell>
        <mxCell id="0yKf3yfJQh01o-Jssx-y-11" value="มีใน&lt;br&gt;ระบบ &lt;br&gt;?" style="rhombus;whiteSpace=wrap;html=1;" vertex="1" parent="1">
          <mxGeometry x="308.85" y="248" width="75" height="70" as="geometry" />
        </mxCell>
        <mxCell id="0yKf3yfJQh01o-Jssx-y-12" value="" style="edgeStyle=orthogonalEdgeStyle;rounded=0;orthogonalLoop=1;jettySize=auto;html=1;" edge="1" parent="1" source="0yKf3yfJQh01o-Jssx-y-8" target="0yKf3yfJQh01o-Jssx-y-11">
          <mxGeometry relative="1" as="geometry" />
        </mxCell>
        <mxCell id="0yKf3yfJQh01o-Jssx-y-13" value="status&lt;br style=&quot;border-color: var(--border-color);&quot;&gt;= 1 ?" style="rhombus;whiteSpace=wrap;html=1;" vertex="1" parent="1">
          <mxGeometry x="316.35" y="368" width="60" height="60" as="geometry" />
        </mxCell>
        <mxCell id="0yKf3yfJQh01o-Jssx-y-14" value="" style="edgeStyle=orthogonalEdgeStyle;rounded=0;orthogonalLoop=1;jettySize=auto;html=1;" edge="1" parent="1" source="0yKf3yfJQh01o-Jssx-y-11" target="0yKf3yfJQh01o-Jssx-y-13">
          <mxGeometry relative="1" as="geometry" />
        </mxCell>
        <mxCell id="0yKf3yfJQh01o-Jssx-y-15" value="ใช่" style="edgeLabel;html=1;align=center;verticalAlign=middle;resizable=0;points=[];" vertex="1" connectable="0" parent="0yKf3yfJQh01o-Jssx-y-14">
          <mxGeometry x="-0.3254" y="2" relative="1" as="geometry">
            <mxPoint x="-2" as="offset" />
          </mxGeometry>
        </mxCell>
        <mxCell id="0yKf3yfJQh01o-Jssx-y-16" value="Locked&lt;br style=&quot;border-color: var(--border-color);&quot;&gt;= 1 ?&amp;nbsp;" style="rhombus;whiteSpace=wrap;html=1;" vertex="1" parent="1">
          <mxGeometry x="316.35" y="498" width="60" height="60" as="geometry" />
        </mxCell>
        <mxCell id="0yKf3yfJQh01o-Jssx-y-17" value="" style="edgeStyle=orthogonalEdgeStyle;rounded=0;orthogonalLoop=1;jettySize=auto;html=1;" edge="1" parent="1" source="0yKf3yfJQh01o-Jssx-y-13" target="0yKf3yfJQh01o-Jssx-y-16">
          <mxGeometry relative="1" as="geometry" />
        </mxCell>
        <mxCell id="0yKf3yfJQh01o-Jssx-y-18" value="ไม่" style="edgeLabel;html=1;align=center;verticalAlign=middle;resizable=0;points=[];" vertex="1" connectable="0" parent="0yKf3yfJQh01o-Jssx-y-17">
          <mxGeometry x="-0.3745" relative="1" as="geometry">
            <mxPoint as="offset" />
          </mxGeometry>
        </mxCell>
        <mxCell id="0yKf3yfJQh01o-Jssx-y-19" value="1" style="ellipse;whiteSpace=wrap;html=1;aspect=fixed;" vertex="1" parent="1">
          <mxGeometry x="218.75" y="590" width="50" height="50" as="geometry" />
        </mxCell>
        <mxCell id="0yKf3yfJQh01o-Jssx-y-20" style="edgeStyle=orthogonalEdgeStyle;rounded=0;orthogonalLoop=1;jettySize=auto;html=1;" edge="1" parent="1" source="0yKf3yfJQh01o-Jssx-y-21" target="0yKf3yfJQh01o-Jssx-y-19">
          <mxGeometry relative="1" as="geometry">
            <Array as="points">
              <mxPoint x="145" y="283" />
              <mxPoint x="145" y="610" />
            </Array>
          </mxGeometry>
        </mxCell>
        <mxCell id="0yKf3yfJQh01o-Jssx-y-21" value="rerturn Error Code&amp;nbsp;001&lt;span style=&quot;font-size: medium; text-align: start;&quot;&gt;&lt;/span&gt;" style="rounded=1;whiteSpace=wrap;html=1;" vertex="1" parent="1">
          <mxGeometry x="155" y="263" width="77.5" height="40" as="geometry" />
        </mxCell>
        <mxCell id="0yKf3yfJQh01o-Jssx-y-22" style="edgeStyle=orthogonalEdgeStyle;rounded=0;orthogonalLoop=1;jettySize=auto;html=1;" edge="1" parent="1" source="0yKf3yfJQh01o-Jssx-y-11" target="0yKf3yfJQh01o-Jssx-y-21">
          <mxGeometry relative="1" as="geometry">
            <mxPoint x="245.10000000000002" y="388" as="targetPoint" />
          </mxGeometry>
        </mxCell>
        <mxCell id="0yKf3yfJQh01o-Jssx-y-23" value="ไม่" style="edgeLabel;html=1;align=center;verticalAlign=middle;resizable=0;points=[];" vertex="1" connectable="0" parent="0yKf3yfJQh01o-Jssx-y-22">
          <mxGeometry x="-0.6573" y="2" relative="1" as="geometry">
            <mxPoint as="offset" />
          </mxGeometry>
        </mxCell>
        <mxCell id="0yKf3yfJQh01o-Jssx-y-24" style="edgeStyle=orthogonalEdgeStyle;rounded=0;orthogonalLoop=1;jettySize=auto;html=1;entryX=0.5;entryY=0;entryDx=0;entryDy=0;" edge="1" parent="1" source="0yKf3yfJQh01o-Jssx-y-25" target="0yKf3yfJQh01o-Jssx-y-19">
          <mxGeometry relative="1" as="geometry" />
        </mxCell>
        <mxCell id="0yKf3yfJQh01o-Jssx-y-25" value="rerturn Error Code&amp;nbsp;011&lt;span style=&quot;font-size: medium; text-align: start;&quot;&gt;&lt;/span&gt;" style="rounded=1;whiteSpace=wrap;html=1;" vertex="1" parent="1">
          <mxGeometry x="205" y="508" width="77.5" height="40" as="geometry" />
        </mxCell>
        <mxCell id="0yKf3yfJQh01o-Jssx-y-26" value="" style="edgeStyle=orthogonalEdgeStyle;rounded=0;orthogonalLoop=1;jettySize=auto;html=1;" edge="1" parent="1" source="0yKf3yfJQh01o-Jssx-y-16" target="0yKf3yfJQh01o-Jssx-y-25">
          <mxGeometry relative="1" as="geometry" />
        </mxCell>
        <mxCell id="0yKf3yfJQh01o-Jssx-y-27" value="ใช่" style="edgeLabel;html=1;align=center;verticalAlign=middle;resizable=0;points=[];" vertex="1" connectable="0" parent="0yKf3yfJQh01o-Jssx-y-26">
          <mxGeometry x="-0.4608" y="1" relative="1" as="geometry">
            <mxPoint as="offset" />
          </mxGeometry>
        </mxCell>
        <mxCell id="0yKf3yfJQh01o-Jssx-y-28" style="edgeStyle=orthogonalEdgeStyle;rounded=0;orthogonalLoop=1;jettySize=auto;html=1;" edge="1" parent="1" source="0yKf3yfJQh01o-Jssx-y-29" target="0yKf3yfJQh01o-Jssx-y-19">
          <mxGeometry relative="1" as="geometry">
            <mxPoint x="245" y="590" as="targetPoint" />
            <Array as="points">
              <mxPoint x="185" y="398" />
              <mxPoint x="185" y="600" />
            </Array>
          </mxGeometry>
        </mxCell>
        <mxCell id="0yKf3yfJQh01o-Jssx-y-29" value="rerturn Error Code&amp;nbsp;004&lt;span style=&quot;font-size: medium; text-align: start;&quot;&gt;&lt;/span&gt;" style="rounded=1;whiteSpace=wrap;html=1;" vertex="1" parent="1">
          <mxGeometry x="205" y="378" width="77.5" height="40" as="geometry" />
        </mxCell>
        <mxCell id="0yKf3yfJQh01o-Jssx-y-30" value="" style="edgeStyle=orthogonalEdgeStyle;rounded=0;orthogonalLoop=1;jettySize=auto;html=1;" edge="1" parent="1" source="0yKf3yfJQh01o-Jssx-y-13" target="0yKf3yfJQh01o-Jssx-y-29">
          <mxGeometry relative="1" as="geometry" />
        </mxCell>
        <mxCell id="0yKf3yfJQh01o-Jssx-y-31" value="ใช่" style="edgeLabel;html=1;align=center;verticalAlign=middle;resizable=0;points=[];" vertex="1" connectable="0" parent="0yKf3yfJQh01o-Jssx-y-30">
          <mxGeometry x="-0.4608" y="2" relative="1" as="geometry">
            <mxPoint as="offset" />
          </mxGeometry>
        </mxCell>
        <mxCell id="0yKf3yfJQh01o-Jssx-y-32" value="" style="edgeStyle=orthogonalEdgeStyle;rounded=0;orthogonalLoop=1;jettySize=auto;html=1;entryX=0.1;entryY=0.5;entryDx=0;entryDy=0;entryPerimeter=0;" edge="1" parent="1" source="0yKf3yfJQh01o-Jssx-y-16" target="0yKf3yfJQh01o-Jssx-y-35">
          <mxGeometry relative="1" as="geometry">
            <mxPoint x="419" y="528" as="targetPoint" />
          </mxGeometry>
        </mxCell>
        <mxCell id="0yKf3yfJQh01o-Jssx-y-33" value="" style="edgeStyle=orthogonalEdgeStyle;rounded=0;orthogonalLoop=1;jettySize=auto;html=1;" edge="1" parent="1" source="0yKf3yfJQh01o-Jssx-y-35">
          <mxGeometry relative="1" as="geometry">
            <mxPoint x="535" y="528" as="targetPoint" />
          </mxGeometry>
        </mxCell>
        <mxCell id="0yKf3yfJQh01o-Jssx-y-34" value="ไม่" style="edgeLabel;html=1;align=center;verticalAlign=middle;resizable=0;points=[];" vertex="1" connectable="0" parent="0yKf3yfJQh01o-Jssx-y-33">
          <mxGeometry x="-0.3115" y="3" relative="1" as="geometry">
            <mxPoint as="offset" />
          </mxGeometry>
        </mxCell>
        <mxCell id="0yKf3yfJQh01o-Jssx-y-35" value="Super&lt;br&gt;Admin ?" style="rhombus;whiteSpace=wrap;html=1;" vertex="1" parent="1">
          <mxGeometry x="419" y="492" width="66" height="72" as="geometry" />
        </mxCell>
        <mxCell id="0yKf3yfJQh01o-Jssx-y-36" value="ตรวจสอบสิทธิ์การใช้งาน Company นี้ไหม&lt;span style=&quot;font-size: medium; text-align: start;&quot;&gt;&lt;/span&gt;" style="rounded=1;whiteSpace=wrap;html=1;" vertex="1" parent="1">
          <mxGeometry x="535" y="508" width="110" height="42" as="geometry" />
        </mxCell>
        <mxCell id="0yKf3yfJQh01o-Jssx-y-37" value="มี ?" style="rhombus;whiteSpace=wrap;html=1;" vertex="1" parent="1">
          <mxGeometry x="557" y="590" width="66" height="72" as="geometry" />
        </mxCell>
        <mxCell id="0yKf3yfJQh01o-Jssx-y-38" value="" style="edgeStyle=orthogonalEdgeStyle;rounded=0;orthogonalLoop=1;jettySize=auto;html=1;" edge="1" parent="1" source="0yKf3yfJQh01o-Jssx-y-36" target="0yKf3yfJQh01o-Jssx-y-37">
          <mxGeometry relative="1" as="geometry" />
        </mxCell>
        <mxCell id="0yKf3yfJQh01o-Jssx-y-39" value="Company &lt;br&gt;มีในระบบ&lt;br&gt;ไหม ?" style="rhombus;whiteSpace=wrap;html=1;" vertex="1" parent="1">
          <mxGeometry x="545" y="720" width="90" height="80" as="geometry" />
        </mxCell>
        <mxCell id="0yKf3yfJQh01o-Jssx-y-40" value="" style="edgeStyle=orthogonalEdgeStyle;rounded=0;orthogonalLoop=1;jettySize=auto;html=1;" edge="1" parent="1" source="0yKf3yfJQh01o-Jssx-y-37" target="0yKf3yfJQh01o-Jssx-y-39">
          <mxGeometry relative="1" as="geometry" />
        </mxCell>
        <mxCell id="0yKf3yfJQh01o-Jssx-y-41" value="ใช่" style="edgeLabel;html=1;align=center;verticalAlign=middle;resizable=0;points=[];" vertex="1" connectable="0" parent="0yKf3yfJQh01o-Jssx-y-40">
          <mxGeometry x="-0.2859" relative="1" as="geometry">
            <mxPoint as="offset" />
          </mxGeometry>
        </mxCell>
        <mxCell id="0yKf3yfJQh01o-Jssx-y-42" value="rerturn Error Code&amp;nbsp;002&lt;span style=&quot;font-size: medium; text-align: start;&quot;&gt;&lt;/span&gt;" style="rounded=1;whiteSpace=wrap;html=1;" vertex="1" parent="1">
          <mxGeometry x="685" y="606" width="77.5" height="40" as="geometry" />
        </mxCell>
        <mxCell id="0yKf3yfJQh01o-Jssx-y-43" style="edgeStyle=orthogonalEdgeStyle;rounded=0;orthogonalLoop=1;jettySize=auto;html=1;" edge="1" parent="1" source="0yKf3yfJQh01o-Jssx-y-37" target="0yKf3yfJQh01o-Jssx-y-42">
          <mxGeometry relative="1" as="geometry">
            <mxPoint x="685" y="625.9999999999998" as="targetPoint" />
          </mxGeometry>
        </mxCell>
        <mxCell id="0yKf3yfJQh01o-Jssx-y-44" value="ไม่" style="edgeLabel;html=1;align=center;verticalAlign=middle;resizable=0;points=[];" vertex="1" connectable="0" parent="0yKf3yfJQh01o-Jssx-y-43">
          <mxGeometry x="-0.0865" y="2" relative="1" as="geometry">
            <mxPoint as="offset" />
          </mxGeometry>
        </mxCell>
        <mxCell id="0yKf3yfJQh01o-Jssx-y-45" value="Company &lt;br&gt;Active ?" style="rhombus;whiteSpace=wrap;html=1;" vertex="1" parent="1">
          <mxGeometry x="545" y="840" width="90" height="80" as="geometry" />
        </mxCell>
        <mxCell id="0yKf3yfJQh01o-Jssx-y-46" value="ใช่" style="edgeStyle=orthogonalEdgeStyle;rounded=0;orthogonalLoop=1;jettySize=auto;html=1;" edge="1" parent="1" source="0yKf3yfJQh01o-Jssx-y-39" target="0yKf3yfJQh01o-Jssx-y-45">
          <mxGeometry relative="1" as="geometry" />
        </mxCell>
        <mxCell id="0yKf3yfJQh01o-Jssx-y-47" value="rerturn Error Code&amp;nbsp;007&lt;span style=&quot;font-size: medium; text-align: start;&quot;&gt;&lt;/span&gt;" style="rounded=1;whiteSpace=wrap;html=1;" vertex="1" parent="1">
          <mxGeometry x="685" y="740" width="77.5" height="40" as="geometry" />
        </mxCell>
        <mxCell id="0yKf3yfJQh01o-Jssx-y-48" value="" style="edgeStyle=orthogonalEdgeStyle;rounded=0;orthogonalLoop=1;jettySize=auto;html=1;" edge="1" parent="1" source="0yKf3yfJQh01o-Jssx-y-39" target="0yKf3yfJQh01o-Jssx-y-47">
          <mxGeometry relative="1" as="geometry" />
        </mxCell>
        <mxCell id="0yKf3yfJQh01o-Jssx-y-49" value="ไม่" style="edgeLabel;html=1;align=center;verticalAlign=middle;resizable=0;points=[];" vertex="1" connectable="0" parent="0yKf3yfJQh01o-Jssx-y-48">
          <mxGeometry x="-0.1127" relative="1" as="geometry">
            <mxPoint as="offset" />
          </mxGeometry>
        </mxCell>
        <mxCell id="0yKf3yfJQh01o-Jssx-y-50" value="rerturn Error Code&amp;nbsp;051&lt;span style=&quot;font-size: medium; text-align: start;&quot;&gt;&lt;/span&gt;" style="rounded=1;whiteSpace=wrap;html=1;" vertex="1" parent="1">
          <mxGeometry x="685" y="860" width="77.5" height="40" as="geometry" />
        </mxCell>
        <mxCell id="0yKf3yfJQh01o-Jssx-y-51" value="" style="edgeStyle=orthogonalEdgeStyle;rounded=0;orthogonalLoop=1;jettySize=auto;html=1;" edge="1" parent="1" source="0yKf3yfJQh01o-Jssx-y-45" target="0yKf3yfJQh01o-Jssx-y-50">
          <mxGeometry relative="1" as="geometry" />
        </mxCell>
        <mxCell id="0yKf3yfJQh01o-Jssx-y-52" value="ไม่" style="edgeLabel;html=1;align=center;verticalAlign=middle;resizable=0;points=[];" vertex="1" connectable="0" parent="0yKf3yfJQh01o-Jssx-y-51">
          <mxGeometry x="-0.2152" y="2" relative="1" as="geometry">
            <mxPoint as="offset" />
          </mxGeometry>
        </mxCell>
        <mxCell id="0yKf3yfJQh01o-Jssx-y-53" value="" style="edgeStyle=orthogonalEdgeStyle;rounded=0;orthogonalLoop=1;jettySize=auto;html=1;" edge="1" parent="1" source="0yKf3yfJQh01o-Jssx-y-54" target="0yKf3yfJQh01o-Jssx-y-71">
          <mxGeometry relative="1" as="geometry" />
        </mxCell>
        <mxCell id="0yKf3yfJQh01o-Jssx-y-54" value="ดึงหัวข้อการกำกับดูแลกิจการ" style="rounded=1;whiteSpace=wrap;html=1;" vertex="1" parent="1">
          <mxGeometry x="392" y="860" width="120" height="40" as="geometry" />
        </mxCell>
        <mxCell id="0yKf3yfJQh01o-Jssx-y-55" style="edgeStyle=orthogonalEdgeStyle;rounded=0;orthogonalLoop=1;jettySize=auto;html=1;entryX=0.5;entryY=0;entryDx=0;entryDy=0;" edge="1" parent="1" source="0yKf3yfJQh01o-Jssx-y-35" target="0yKf3yfJQh01o-Jssx-y-54">
          <mxGeometry relative="1" as="geometry">
            <mxPoint x="452" y="920" as="targetPoint" />
          </mxGeometry>
        </mxCell>
        <mxCell id="0yKf3yfJQh01o-Jssx-y-56" value="ใช่" style="edgeLabel;html=1;align=center;verticalAlign=middle;resizable=0;points=[];" vertex="1" connectable="0" parent="0yKf3yfJQh01o-Jssx-y-55">
          <mxGeometry x="-0.3215" y="2" relative="1" as="geometry">
            <mxPoint as="offset" />
          </mxGeometry>
        </mxCell>
        <mxCell id="0yKf3yfJQh01o-Jssx-y-57" style="edgeStyle=orthogonalEdgeStyle;rounded=0;orthogonalLoop=1;jettySize=auto;html=1;entryX=1;entryY=0.5;entryDx=0;entryDy=0;" edge="1" parent="1" source="0yKf3yfJQh01o-Jssx-y-45" target="0yKf3yfJQh01o-Jssx-y-54">
          <mxGeometry relative="1" as="geometry">
            <Array as="points">
              <mxPoint x="512" y="880" />
            </Array>
          </mxGeometry>
        </mxCell>
        <mxCell id="0yKf3yfJQh01o-Jssx-y-58" value="2" style="ellipse;whiteSpace=wrap;html=1;aspect=fixed;" vertex="1" parent="1">
          <mxGeometry x="698.75" y="970" width="50" height="50" as="geometry" />
        </mxCell>
        <mxCell id="0yKf3yfJQh01o-Jssx-y-59" style="edgeStyle=orthogonalEdgeStyle;rounded=0;orthogonalLoop=1;jettySize=auto;html=1;entryX=1;entryY=0.5;entryDx=0;entryDy=0;" edge="1" parent="1" source="0yKf3yfJQh01o-Jssx-y-42" target="0yKf3yfJQh01o-Jssx-y-58">
          <mxGeometry relative="1" as="geometry">
            <mxPoint x="785" y="780" as="targetPoint" />
            <Array as="points">
              <mxPoint x="783" y="626" />
              <mxPoint x="783" y="995" />
            </Array>
          </mxGeometry>
        </mxCell>
        <mxCell id="0yKf3yfJQh01o-Jssx-y-60" style="edgeStyle=orthogonalEdgeStyle;rounded=0;orthogonalLoop=1;jettySize=auto;html=1;entryX=1;entryY=0;entryDx=0;entryDy=0;" edge="1" parent="1" source="0yKf3yfJQh01o-Jssx-y-47" target="0yKf3yfJQh01o-Jssx-y-58">
          <mxGeometry relative="1" as="geometry">
            <Array as="points">
              <mxPoint x="775" y="760" />
              <mxPoint x="775" y="977" />
            </Array>
          </mxGeometry>
        </mxCell>
        <mxCell id="0yKf3yfJQh01o-Jssx-y-61" style="edgeStyle=orthogonalEdgeStyle;rounded=0;orthogonalLoop=1;jettySize=auto;html=1;" edge="1" parent="1" source="0yKf3yfJQh01o-Jssx-y-50" target="0yKf3yfJQh01o-Jssx-y-58">
          <mxGeometry relative="1" as="geometry" />
        </mxCell>
        <mxCell id="0yKf3yfJQh01o-Jssx-y-62" value="สิ้นสุด" style="ellipse;whiteSpace=wrap;html=1;" vertex="1" parent="1">
          <mxGeometry x="367" y="1070" width="103" height="60" as="geometry" />
        </mxCell>
        <mxCell id="0yKf3yfJQh01o-Jssx-y-63" style="edgeStyle=orthogonalEdgeStyle;rounded=0;orthogonalLoop=1;jettySize=auto;html=1;entryX=0;entryY=0.5;entryDx=0;entryDy=0;" edge="1" parent="1" source="0yKf3yfJQh01o-Jssx-y-19" target="0yKf3yfJQh01o-Jssx-y-62">
          <mxGeometry relative="1" as="geometry">
            <Array as="points">
              <mxPoint x="244" y="1100" />
            </Array>
          </mxGeometry>
        </mxCell>
        <mxCell id="0yKf3yfJQh01o-Jssx-y-64" style="edgeStyle=orthogonalEdgeStyle;rounded=0;orthogonalLoop=1;jettySize=auto;html=1;entryX=1;entryY=1;entryDx=0;entryDy=0;" edge="1" parent="1" source="0yKf3yfJQh01o-Jssx-y-58" target="0yKf3yfJQh01o-Jssx-y-62">
          <mxGeometry relative="1" as="geometry">
            <Array as="points">
              <mxPoint x="724" y="1120" />
              <mxPoint x="455" y="1120" />
            </Array>
          </mxGeometry>
        </mxCell>
        <mxCell id="0yKf3yfJQh01o-Jssx-y-65" style="edgeStyle=orthogonalEdgeStyle;rounded=0;orthogonalLoop=1;jettySize=auto;html=1;entryX=0;entryY=0;entryDx=0;entryDy=0;" edge="1" parent="1" source="0yKf3yfJQh01o-Jssx-y-66" target="0yKf3yfJQh01o-Jssx-y-62">
          <mxGeometry relative="1" as="geometry">
            <Array as="points">
              <mxPoint x="340" y="1080" />
              <mxPoint x="380" y="1080" />
              <mxPoint x="380" y="1079" />
            </Array>
          </mxGeometry>
        </mxCell>
        <mxCell id="0yKf3yfJQh01o-Jssx-y-66" value="ส่งกลับหัวข้อการกำกับดูแลกิจการ" style="rounded=1;whiteSpace=wrap;html=1;" vertex="1" parent="1">
          <mxGeometry x="280" y="930" width="120" height="40" as="geometry" />
        </mxCell>
        <mxCell id="0yKf3yfJQh01o-Jssx-y-67" value="" style="edgeStyle=orthogonalEdgeStyle;rounded=0;orthogonalLoop=1;jettySize=auto;html=1;" edge="1" parent="1" source="0yKf3yfJQh01o-Jssx-y-71" target="0yKf3yfJQh01o-Jssx-y-66">
          <mxGeometry relative="1" as="geometry" />
        </mxCell>
        <mxCell id="0yKf3yfJQh01o-Jssx-y-68" value="ใช่" style="edgeLabel;html=1;align=center;verticalAlign=middle;resizable=0;points=[];" vertex="1" connectable="0" parent="0yKf3yfJQh01o-Jssx-y-67">
          <mxGeometry x="-0.3989" y="-1" relative="1" as="geometry">
            <mxPoint y="2" as="offset" />
          </mxGeometry>
        </mxCell>
        <mxCell id="0yKf3yfJQh01o-Jssx-y-69" style="edgeStyle=orthogonalEdgeStyle;rounded=0;orthogonalLoop=1;jettySize=auto;html=1;" edge="1" parent="1" source="0yKf3yfJQh01o-Jssx-y-71" target="0yKf3yfJQh01o-Jssx-y-73">
          <mxGeometry relative="1" as="geometry" />
        </mxCell>
        <mxCell id="0yKf3yfJQh01o-Jssx-y-70" value="ไม่" style="edgeLabel;html=1;align=center;verticalAlign=middle;resizable=0;points=[];" vertex="1" connectable="0" parent="0yKf3yfJQh01o-Jssx-y-69">
          <mxGeometry x="0.2287" y="-1" relative="1" as="geometry">
            <mxPoint as="offset" />
          </mxGeometry>
        </mxCell>
        <mxCell id="0yKf3yfJQh01o-Jssx-y-71" value="มี?" style="rhombus;whiteSpace=wrap;html=1;" vertex="1" parent="1">
          <mxGeometry x="427.75" y="930" width="48.5" height="40" as="geometry" />
        </mxCell>
        <mxCell id="0yKf3yfJQh01o-Jssx-y-72" style="edgeStyle=orthogonalEdgeStyle;rounded=0;orthogonalLoop=1;jettySize=auto;html=1;" edge="1" parent="1" source="0yKf3yfJQh01o-Jssx-y-73" target="0yKf3yfJQh01o-Jssx-y-62">
          <mxGeometry relative="1" as="geometry" />
        </mxCell>
        <mxCell id="0yKf3yfJQh01o-Jssx-y-73" value="return Error code 123" style="rounded=1;whiteSpace=wrap;html=1;" vertex="1" parent="1">
          <mxGeometry x="477" y="1000" width="80" height="50" as="geometry" />
        </mxCell>
      </root>
    </mxGraphModel>
  </diagram>
  <diagram id="qn9hmONEfy4LeKnghUWs" name="Page-3">
    <mxGraphModel dx="1434" dy="764" grid="1" gridSize="10" guides="1" tooltips="1" connect="1" arrows="1" fold="1" page="1" pageScale="1" pageWidth="850" pageHeight="1100" math="0" shadow="0">
      <root>
        <mxCell id="0" />
        <mxCell id="1" parent="0" />
        <mxCell id="7HXTrJapL1t1t9HQIBRs-1" value="เริ่ม" style="ellipse;whiteSpace=wrap;html=1;" vertex="1" parent="1">
          <mxGeometry x="75" y="20" width="80" height="40" as="geometry" />
        </mxCell>
        <mxCell id="7HXTrJapL1t1t9HQIBRs-2" value="ตรวจสอบสิทธิ์การใช้งาน" style="rounded=1;whiteSpace=wrap;html=1;" vertex="1" parent="1">
          <mxGeometry x="45" y="100" width="140" height="30" as="geometry" />
        </mxCell>
        <mxCell id="7HXTrJapL1t1t9HQIBRs-3" value="" style="edgeStyle=orthogonalEdgeStyle;rounded=0;orthogonalLoop=1;jettySize=auto;html=1;" edge="1" parent="1" source="7HXTrJapL1t1t9HQIBRs-1" target="7HXTrJapL1t1t9HQIBRs-2">
          <mxGeometry relative="1" as="geometry" />
        </mxCell>
        <mxCell id="7HXTrJapL1t1t9HQIBRs-4" value="มี ?" style="rhombus;whiteSpace=wrap;html=1;" vertex="1" parent="1">
          <mxGeometry x="85" y="160" width="60" height="60" as="geometry" />
        </mxCell>
        <mxCell id="7HXTrJapL1t1t9HQIBRs-5" value="" style="edgeStyle=orthogonalEdgeStyle;rounded=0;orthogonalLoop=1;jettySize=auto;html=1;" edge="1" parent="1" source="7HXTrJapL1t1t9HQIBRs-2" target="7HXTrJapL1t1t9HQIBRs-4">
          <mxGeometry relative="1" as="geometry" />
        </mxCell>
        <mxCell id="7HXTrJapL1t1t9HQIBRs-6" style="edgeStyle=orthogonalEdgeStyle;rounded=0;orthogonalLoop=1;jettySize=auto;html=1;entryX=-0.022;entryY=0.676;entryDx=0;entryDy=0;entryPerimeter=0;" edge="1" parent="1" source="7HXTrJapL1t1t9HQIBRs-4" target="7HXTrJapL1t1t9HQIBRs-19">
          <mxGeometry relative="1" as="geometry">
            <Array as="points">
              <mxPoint x="115" y="696" />
            </Array>
            <mxPoint x="270" y="730" as="targetPoint" />
          </mxGeometry>
        </mxCell>
        <mxCell id="7HXTrJapL1t1t9HQIBRs-7" value="ไม่" style="edgeLabel;html=1;align=center;verticalAlign=middle;resizable=0;points=[];" vertex="1" connectable="0" parent="7HXTrJapL1t1t9HQIBRs-6">
          <mxGeometry x="-0.8925" y="1" relative="1" as="geometry">
            <mxPoint as="offset" />
          </mxGeometry>
        </mxCell>
        <mxCell id="7HXTrJapL1t1t9HQIBRs-8" value="ตรวจสอบ Account &lt;br&gt;สถานะการใช้งาน" style="rounded=1;whiteSpace=wrap;html=1;" vertex="1" parent="1">
          <mxGeometry x="261.35" y="169" width="170" height="40" as="geometry" />
        </mxCell>
        <mxCell id="7HXTrJapL1t1t9HQIBRs-9" value="" style="edgeStyle=orthogonalEdgeStyle;rounded=0;orthogonalLoop=1;jettySize=auto;html=1;" edge="1" parent="1" source="7HXTrJapL1t1t9HQIBRs-4" target="7HXTrJapL1t1t9HQIBRs-8">
          <mxGeometry relative="1" as="geometry">
            <Array as="points">
              <mxPoint x="225" y="190" />
              <mxPoint x="225" y="190" />
            </Array>
          </mxGeometry>
        </mxCell>
        <mxCell id="7HXTrJapL1t1t9HQIBRs-10" value="ใช่" style="edgeLabel;html=1;align=center;verticalAlign=middle;resizable=0;points=[];" vertex="1" connectable="0" parent="7HXTrJapL1t1t9HQIBRs-9">
          <mxGeometry x="-0.7797" y="-1" relative="1" as="geometry">
            <mxPoint as="offset" />
          </mxGeometry>
        </mxCell>
        <mxCell id="7HXTrJapL1t1t9HQIBRs-11" value="มีใน&lt;br&gt;ระบบ &lt;br&gt;?" style="rhombus;whiteSpace=wrap;html=1;" vertex="1" parent="1">
          <mxGeometry x="339" y="248" width="75" height="70" as="geometry" />
        </mxCell>
        <mxCell id="7HXTrJapL1t1t9HQIBRs-12" value="" style="edgeStyle=orthogonalEdgeStyle;rounded=0;orthogonalLoop=1;jettySize=auto;html=1;" edge="1" parent="1" source="7HXTrJapL1t1t9HQIBRs-8" target="7HXTrJapL1t1t9HQIBRs-11">
          <mxGeometry relative="1" as="geometry" />
        </mxCell>
        <mxCell id="7HXTrJapL1t1t9HQIBRs-13" value="status&lt;br style=&quot;border-color: var(--border-color);&quot;&gt;= 1 ?" style="rhombus;whiteSpace=wrap;html=1;" vertex="1" parent="1">
          <mxGeometry x="367" y="368" width="60" height="60" as="geometry" />
        </mxCell>
        <mxCell id="7HXTrJapL1t1t9HQIBRs-14" value="" style="edgeStyle=orthogonalEdgeStyle;rounded=0;orthogonalLoop=1;jettySize=auto;html=1;" edge="1" parent="1" source="7HXTrJapL1t1t9HQIBRs-11" target="7HXTrJapL1t1t9HQIBRs-13">
          <mxGeometry relative="1" as="geometry" />
        </mxCell>
        <mxCell id="7HXTrJapL1t1t9HQIBRs-15" value="ใช่" style="edgeLabel;html=1;align=center;verticalAlign=middle;resizable=0;points=[];" vertex="1" connectable="0" parent="7HXTrJapL1t1t9HQIBRs-14">
          <mxGeometry x="-0.3254" y="2" relative="1" as="geometry">
            <mxPoint x="-2" as="offset" />
          </mxGeometry>
        </mxCell>
        <mxCell id="7HXTrJapL1t1t9HQIBRs-16" value="Locked&lt;br style=&quot;border-color: var(--border-color);&quot;&gt;= 1 ?&amp;nbsp;" style="rhombus;whiteSpace=wrap;html=1;" vertex="1" parent="1">
          <mxGeometry x="367.75" y="498" width="60" height="60" as="geometry" />
        </mxCell>
        <mxCell id="7HXTrJapL1t1t9HQIBRs-17" value="" style="edgeStyle=orthogonalEdgeStyle;rounded=0;orthogonalLoop=1;jettySize=auto;html=1;" edge="1" parent="1" source="7HXTrJapL1t1t9HQIBRs-13" target="7HXTrJapL1t1t9HQIBRs-16">
          <mxGeometry relative="1" as="geometry" />
        </mxCell>
        <mxCell id="7HXTrJapL1t1t9HQIBRs-18" value="ไม่" style="edgeLabel;html=1;align=center;verticalAlign=middle;resizable=0;points=[];" vertex="1" connectable="0" parent="7HXTrJapL1t1t9HQIBRs-17">
          <mxGeometry x="-0.3745" relative="1" as="geometry">
            <mxPoint as="offset" />
          </mxGeometry>
        </mxCell>
        <mxCell id="7HXTrJapL1t1t9HQIBRs-19" value="1" style="ellipse;whiteSpace=wrap;html=1;aspect=fixed;" vertex="1" parent="1">
          <mxGeometry x="197.5" y="662" width="50" height="50" as="geometry" />
        </mxCell>
        <mxCell id="7HXTrJapL1t1t9HQIBRs-20" style="edgeStyle=orthogonalEdgeStyle;rounded=0;orthogonalLoop=1;jettySize=auto;html=1;exitX=0.492;exitY=0.949;exitDx=0;exitDy=0;exitPerimeter=0;" edge="1" parent="1" source="7HXTrJapL1t1t9HQIBRs-21" target="7HXTrJapL1t1t9HQIBRs-19">
          <mxGeometry relative="1" as="geometry">
            <Array as="points">
              <mxPoint x="166" y="376" />
              <mxPoint x="150" y="376" />
              <mxPoint x="150" y="680" />
            </Array>
          </mxGeometry>
        </mxCell>
        <mxCell id="7HXTrJapL1t1t9HQIBRs-21" value="rerturn Error Code&amp;nbsp;001&lt;span style=&quot;font-size: medium; text-align: start;&quot;&gt;&lt;/span&gt;" style="rounded=1;whiteSpace=wrap;html=1;" vertex="1" parent="1">
          <mxGeometry x="127.5" y="328" width="77.5" height="40" as="geometry" />
        </mxCell>
        <mxCell id="7HXTrJapL1t1t9HQIBRs-22" style="edgeStyle=orthogonalEdgeStyle;rounded=0;orthogonalLoop=1;jettySize=auto;html=1;entryX=1;entryY=1;entryDx=0;entryDy=0;" edge="1" parent="1" source="7HXTrJapL1t1t9HQIBRs-23" target="7HXTrJapL1t1t9HQIBRs-19">
          <mxGeometry relative="1" as="geometry">
            <Array as="points">
              <mxPoint x="302" y="705" />
              <mxPoint x="244" y="705" />
            </Array>
          </mxGeometry>
        </mxCell>
        <mxCell id="7HXTrJapL1t1t9HQIBRs-23" value="rerturn Error Code&amp;nbsp;011&lt;span style=&quot;font-size: medium; text-align: start;&quot;&gt;&lt;/span&gt;" style="rounded=1;whiteSpace=wrap;html=1;" vertex="1" parent="1">
          <mxGeometry x="263.5" y="646" width="77.5" height="40" as="geometry" />
        </mxCell>
        <mxCell id="7HXTrJapL1t1t9HQIBRs-24" value="" style="edgeStyle=orthogonalEdgeStyle;rounded=0;orthogonalLoop=1;jettySize=auto;html=1;entryX=0.467;entryY=0.027;entryDx=0;entryDy=0;entryPerimeter=0;" edge="1" parent="1" source="7HXTrJapL1t1t9HQIBRs-68" target="7HXTrJapL1t1t9HQIBRs-70">
          <mxGeometry relative="1" as="geometry" />
        </mxCell>
        <mxCell id="7HXTrJapL1t1t9HQIBRs-25" style="edgeStyle=orthogonalEdgeStyle;rounded=0;orthogonalLoop=1;jettySize=auto;html=1;" edge="1" parent="1" source="7HXTrJapL1t1t9HQIBRs-26" target="7HXTrJapL1t1t9HQIBRs-19">
          <mxGeometry relative="1" as="geometry">
            <mxPoint x="190" y="630" as="targetPoint" />
            <Array as="points">
              <mxPoint x="209" y="660" />
              <mxPoint x="209" y="660" />
            </Array>
          </mxGeometry>
        </mxCell>
        <mxCell id="7HXTrJapL1t1t9HQIBRs-26" value="rerturn Error Code&amp;nbsp;004&lt;span style=&quot;font-size: medium; text-align: start;&quot;&gt;&lt;/span&gt;" style="rounded=1;whiteSpace=wrap;html=1;" vertex="1" parent="1">
          <mxGeometry x="170" y="468" width="77.5" height="40" as="geometry" />
        </mxCell>
        <mxCell id="7HXTrJapL1t1t9HQIBRs-27" value="" style="edgeStyle=orthogonalEdgeStyle;rounded=0;orthogonalLoop=1;jettySize=auto;html=1;" edge="1" parent="1" source="7HXTrJapL1t1t9HQIBRs-13" target="7HXTrJapL1t1t9HQIBRs-63">
          <mxGeometry relative="1" as="geometry">
            <mxPoint x="300" y="380" as="targetPoint" />
          </mxGeometry>
        </mxCell>
        <mxCell id="7HXTrJapL1t1t9HQIBRs-28" value="ใช่" style="edgeLabel;html=1;align=center;verticalAlign=middle;resizable=0;points=[];" vertex="1" connectable="0" parent="7HXTrJapL1t1t9HQIBRs-27">
          <mxGeometry x="-0.4608" y="2" relative="1" as="geometry">
            <mxPoint as="offset" />
          </mxGeometry>
        </mxCell>
        <mxCell id="7HXTrJapL1t1t9HQIBRs-29" value="" style="edgeStyle=orthogonalEdgeStyle;rounded=0;orthogonalLoop=1;jettySize=auto;html=1;entryX=0.1;entryY=0.5;entryDx=0;entryDy=0;entryPerimeter=0;" edge="1" parent="1" source="7HXTrJapL1t1t9HQIBRs-16" target="7HXTrJapL1t1t9HQIBRs-32">
          <mxGeometry relative="1" as="geometry">
            <mxPoint x="419" y="528" as="targetPoint" />
            <Array as="points">
              <mxPoint x="460" y="528" />
              <mxPoint x="460" y="354" />
            </Array>
          </mxGeometry>
        </mxCell>
        <mxCell id="7HXTrJapL1t1t9HQIBRs-30" value="" style="edgeStyle=orthogonalEdgeStyle;rounded=0;orthogonalLoop=1;jettySize=auto;html=1;" edge="1" parent="1" source="7HXTrJapL1t1t9HQIBRs-32" target="7HXTrJapL1t1t9HQIBRs-33">
          <mxGeometry relative="1" as="geometry">
            <mxPoint x="535" y="528" as="targetPoint" />
            <Array as="points">
              <mxPoint x="590" y="354" />
            </Array>
          </mxGeometry>
        </mxCell>
        <mxCell id="7HXTrJapL1t1t9HQIBRs-31" value="ไม่" style="edgeLabel;html=1;align=center;verticalAlign=middle;resizable=0;points=[];" vertex="1" connectable="0" parent="7HXTrJapL1t1t9HQIBRs-30">
          <mxGeometry x="-0.3115" y="3" relative="1" as="geometry">
            <mxPoint as="offset" />
          </mxGeometry>
        </mxCell>
        <mxCell id="7HXTrJapL1t1t9HQIBRs-32" value="Super&lt;br&gt;Admin ?" style="rhombus;whiteSpace=wrap;html=1;" vertex="1" parent="1">
          <mxGeometry x="476.25" y="318" width="66" height="72" as="geometry" />
        </mxCell>
        <mxCell id="7HXTrJapL1t1t9HQIBRs-33" value="ตรวจสอบสิทธิ์การใช้งาน Company นี้ไหม&lt;span style=&quot;font-size: medium; text-align: start;&quot;&gt;&lt;/span&gt;" style="rounded=1;whiteSpace=wrap;html=1;" vertex="1" parent="1">
          <mxGeometry x="535" y="508" width="110" height="42" as="geometry" />
        </mxCell>
        <mxCell id="7HXTrJapL1t1t9HQIBRs-34" value="มี ?" style="rhombus;whiteSpace=wrap;html=1;" vertex="1" parent="1">
          <mxGeometry x="557" y="590" width="66" height="72" as="geometry" />
        </mxCell>
        <mxCell id="7HXTrJapL1t1t9HQIBRs-35" value="" style="edgeStyle=orthogonalEdgeStyle;rounded=0;orthogonalLoop=1;jettySize=auto;html=1;" edge="1" parent="1" source="7HXTrJapL1t1t9HQIBRs-33" target="7HXTrJapL1t1t9HQIBRs-34">
          <mxGeometry relative="1" as="geometry" />
        </mxCell>
        <mxCell id="7HXTrJapL1t1t9HQIBRs-36" value="Company &lt;br&gt;มีในระบบ&lt;br&gt;ไหม ?" style="rhombus;whiteSpace=wrap;html=1;" vertex="1" parent="1">
          <mxGeometry x="545" y="720" width="90" height="80" as="geometry" />
        </mxCell>
        <mxCell id="7HXTrJapL1t1t9HQIBRs-37" value="" style="edgeStyle=orthogonalEdgeStyle;rounded=0;orthogonalLoop=1;jettySize=auto;html=1;" edge="1" parent="1" source="7HXTrJapL1t1t9HQIBRs-34" target="7HXTrJapL1t1t9HQIBRs-36">
          <mxGeometry relative="1" as="geometry" />
        </mxCell>
        <mxCell id="7HXTrJapL1t1t9HQIBRs-38" value="ใช่" style="edgeLabel;html=1;align=center;verticalAlign=middle;resizable=0;points=[];" vertex="1" connectable="0" parent="7HXTrJapL1t1t9HQIBRs-37">
          <mxGeometry x="-0.2859" relative="1" as="geometry">
            <mxPoint as="offset" />
          </mxGeometry>
        </mxCell>
        <mxCell id="7HXTrJapL1t1t9HQIBRs-39" style="edgeStyle=orthogonalEdgeStyle;rounded=0;orthogonalLoop=1;jettySize=auto;html=1;" edge="1" parent="1">
          <mxGeometry relative="1" as="geometry">
            <mxPoint x="737.5" y="626" as="sourcePoint" />
            <mxPoint x="760" y="626" as="targetPoint" />
          </mxGeometry>
        </mxCell>
        <mxCell id="7HXTrJapL1t1t9HQIBRs-40" style="edgeStyle=orthogonalEdgeStyle;rounded=0;orthogonalLoop=1;jettySize=auto;html=1;" edge="1" parent="1" source="7HXTrJapL1t1t9HQIBRs-34">
          <mxGeometry relative="1" as="geometry">
            <mxPoint x="660" y="626" as="targetPoint" />
          </mxGeometry>
        </mxCell>
        <mxCell id="7HXTrJapL1t1t9HQIBRs-41" value="ไม่" style="edgeLabel;html=1;align=center;verticalAlign=middle;resizable=0;points=[];" vertex="1" connectable="0" parent="7HXTrJapL1t1t9HQIBRs-40">
          <mxGeometry x="-0.0865" y="2" relative="1" as="geometry">
            <mxPoint as="offset" />
          </mxGeometry>
        </mxCell>
        <mxCell id="7HXTrJapL1t1t9HQIBRs-42" style="edgeStyle=orthogonalEdgeStyle;rounded=0;orthogonalLoop=1;jettySize=auto;html=1;" edge="1" parent="1" source="7HXTrJapL1t1t9HQIBRs-44" target="7HXTrJapL1t1t9HQIBRs-88">
          <mxGeometry relative="1" as="geometry" />
        </mxCell>
        <mxCell id="7HXTrJapL1t1t9HQIBRs-43" value="ใช่" style="edgeLabel;html=1;align=center;verticalAlign=middle;resizable=0;points=[];" vertex="1" connectable="0" parent="7HXTrJapL1t1t9HQIBRs-42">
          <mxGeometry x="-0.0994" relative="1" as="geometry">
            <mxPoint as="offset" />
          </mxGeometry>
        </mxCell>
        <mxCell id="7HXTrJapL1t1t9HQIBRs-44" value="Company &lt;br&gt;Active ?" style="rhombus;whiteSpace=wrap;html=1;" vertex="1" parent="1">
          <mxGeometry x="545" y="840" width="90" height="80" as="geometry" />
        </mxCell>
        <mxCell id="7HXTrJapL1t1t9HQIBRs-45" value="ใช่" style="edgeStyle=orthogonalEdgeStyle;rounded=0;orthogonalLoop=1;jettySize=auto;html=1;" edge="1" parent="1" source="7HXTrJapL1t1t9HQIBRs-36" target="7HXTrJapL1t1t9HQIBRs-44">
          <mxGeometry relative="1" as="geometry" />
        </mxCell>
        <mxCell id="7HXTrJapL1t1t9HQIBRs-46" value="" style="edgeStyle=orthogonalEdgeStyle;rounded=0;orthogonalLoop=1;jettySize=auto;html=1;" edge="1" parent="1" source="7HXTrJapL1t1t9HQIBRs-36">
          <mxGeometry relative="1" as="geometry">
            <mxPoint x="685" y="760" as="targetPoint" />
          </mxGeometry>
        </mxCell>
        <mxCell id="7HXTrJapL1t1t9HQIBRs-47" value="ไม่" style="edgeLabel;html=1;align=center;verticalAlign=middle;resizable=0;points=[];" vertex="1" connectable="0" parent="7HXTrJapL1t1t9HQIBRs-46">
          <mxGeometry x="-0.1127" relative="1" as="geometry">
            <mxPoint as="offset" />
          </mxGeometry>
        </mxCell>
        <mxCell id="7HXTrJapL1t1t9HQIBRs-48" value="" style="edgeStyle=orthogonalEdgeStyle;rounded=0;orthogonalLoop=1;jettySize=auto;html=1;" edge="1" parent="1" source="7HXTrJapL1t1t9HQIBRs-44" target="7HXTrJapL1t1t9HQIBRs-83">
          <mxGeometry relative="1" as="geometry">
            <mxPoint x="685" y="880" as="targetPoint" />
          </mxGeometry>
        </mxCell>
        <mxCell id="7HXTrJapL1t1t9HQIBRs-49" value="ไม่" style="edgeLabel;html=1;align=center;verticalAlign=middle;resizable=0;points=[];" vertex="1" connectable="0" parent="7HXTrJapL1t1t9HQIBRs-48">
          <mxGeometry x="-0.2152" y="2" relative="1" as="geometry">
            <mxPoint as="offset" />
          </mxGeometry>
        </mxCell>
        <mxCell id="7HXTrJapL1t1t9HQIBRs-50" style="edgeStyle=orthogonalEdgeStyle;rounded=0;orthogonalLoop=1;jettySize=auto;html=1;" edge="1" parent="1" source="7HXTrJapL1t1t9HQIBRs-32" target="7HXTrJapL1t1t9HQIBRs-88">
          <mxGeometry relative="1" as="geometry">
            <mxPoint x="452" y="860" as="targetPoint" />
          </mxGeometry>
        </mxCell>
        <mxCell id="7HXTrJapL1t1t9HQIBRs-51" value="ใช่" style="edgeLabel;html=1;align=center;verticalAlign=middle;resizable=0;points=[];" vertex="1" connectable="0" parent="7HXTrJapL1t1t9HQIBRs-50">
          <mxGeometry x="-0.3215" y="2" relative="1" as="geometry">
            <mxPoint as="offset" />
          </mxGeometry>
        </mxCell>
        <mxCell id="7HXTrJapL1t1t9HQIBRs-52" style="edgeStyle=orthogonalEdgeStyle;rounded=0;orthogonalLoop=1;jettySize=auto;html=1;entryX=1;entryY=0.5;entryDx=0;entryDy=0;" edge="1" parent="1" source="7HXTrJapL1t1t9HQIBRs-53" target="7HXTrJapL1t1t9HQIBRs-91">
          <mxGeometry relative="1" as="geometry" />
        </mxCell>
        <mxCell id="7HXTrJapL1t1t9HQIBRs-53" value="2" style="ellipse;whiteSpace=wrap;html=1;aspect=fixed;" vertex="1" parent="1">
          <mxGeometry x="698.75" y="970" width="50" height="50" as="geometry" />
        </mxCell>
        <mxCell id="7HXTrJapL1t1t9HQIBRs-54" style="edgeStyle=orthogonalEdgeStyle;rounded=0;orthogonalLoop=1;jettySize=auto;html=1;entryX=1;entryY=0.5;entryDx=0;entryDy=0;" edge="1" parent="1" source="7HXTrJapL1t1t9HQIBRs-73" target="7HXTrJapL1t1t9HQIBRs-53">
          <mxGeometry relative="1" as="geometry">
            <mxPoint x="785" y="780" as="targetPoint" />
            <Array as="points">
              <mxPoint x="910" y="692" />
              <mxPoint x="910" y="995" />
            </Array>
            <mxPoint x="800.0285714285715" y="646" as="sourcePoint" />
          </mxGeometry>
        </mxCell>
        <mxCell id="7HXTrJapL1t1t9HQIBRs-55" style="edgeStyle=orthogonalEdgeStyle;rounded=0;orthogonalLoop=1;jettySize=auto;html=1;entryX=0;entryY=0.5;entryDx=0;entryDy=0;" edge="1" parent="1" target="7HXTrJapL1t1t9HQIBRs-79">
          <mxGeometry relative="1" as="geometry">
            <Array as="points">
              <mxPoint x="780" y="760" />
              <mxPoint x="780" y="760" />
            </Array>
            <mxPoint x="762.5" y="760.037037037037" as="sourcePoint" />
          </mxGeometry>
        </mxCell>
        <mxCell id="7HXTrJapL1t1t9HQIBRs-56" value="" style="edgeStyle=orthogonalEdgeStyle;rounded=0;orthogonalLoop=1;jettySize=auto;html=1;entryX=0.5;entryY=0;entryDx=0;entryDy=0;" edge="1" parent="1" source="7HXTrJapL1t1t9HQIBRs-57" target="7HXTrJapL1t1t9HQIBRs-21">
          <mxGeometry relative="1" as="geometry" />
        </mxCell>
        <mxCell id="7HXTrJapL1t1t9HQIBRs-57" value="บันทึกข้อมูล&lt;span style=&quot;font-size: medium; text-align: start;&quot;&gt;&lt;/span&gt;" style="rounded=1;whiteSpace=wrap;html=1;" vertex="1" parent="1">
          <mxGeometry x="127.5" y="263" width="77.5" height="40" as="geometry" />
        </mxCell>
        <mxCell id="7HXTrJapL1t1t9HQIBRs-58" value="" style="edgeStyle=orthogonalEdgeStyle;rounded=0;orthogonalLoop=1;jettySize=auto;html=1;" edge="1" parent="1" source="7HXTrJapL1t1t9HQIBRs-11" target="7HXTrJapL1t1t9HQIBRs-61">
          <mxGeometry relative="1" as="geometry">
            <mxPoint x="159" y="338" as="targetPoint" />
            <mxPoint x="309" y="283" as="sourcePoint" />
          </mxGeometry>
        </mxCell>
        <mxCell id="7HXTrJapL1t1t9HQIBRs-59" value="ไม่" style="edgeLabel;html=1;align=center;verticalAlign=middle;resizable=0;points=[];" vertex="1" connectable="0" parent="7HXTrJapL1t1t9HQIBRs-58">
          <mxGeometry x="-0.6573" y="2" relative="1" as="geometry">
            <mxPoint as="offset" />
          </mxGeometry>
        </mxCell>
        <mxCell id="7HXTrJapL1t1t9HQIBRs-60" style="edgeStyle=orthogonalEdgeStyle;rounded=0;orthogonalLoop=1;jettySize=auto;html=1;" edge="1" parent="1" source="7HXTrJapL1t1t9HQIBRs-61" target="7HXTrJapL1t1t9HQIBRs-57">
          <mxGeometry relative="1" as="geometry" />
        </mxCell>
        <mxCell id="7HXTrJapL1t1t9HQIBRs-61" value="สร้างข้อมูล ActivityLog&lt;span style=&quot;font-size: medium; text-align: start;&quot;&gt;&lt;/span&gt;" style="rounded=1;whiteSpace=wrap;html=1;" vertex="1" parent="1">
          <mxGeometry x="230" y="263" width="77.5" height="40" as="geometry" />
        </mxCell>
        <mxCell id="7HXTrJapL1t1t9HQIBRs-62" style="edgeStyle=orthogonalEdgeStyle;rounded=0;orthogonalLoop=1;jettySize=auto;html=1;" edge="1" parent="1" source="7HXTrJapL1t1t9HQIBRs-63" target="7HXTrJapL1t1t9HQIBRs-65">
          <mxGeometry relative="1" as="geometry" />
        </mxCell>
        <mxCell id="7HXTrJapL1t1t9HQIBRs-63" value="สร้างข้อมูล ActivityLog&lt;span style=&quot;font-size: medium; text-align: start;&quot;&gt;&lt;/span&gt;" style="rounded=1;whiteSpace=wrap;html=1;" vertex="1" parent="1">
          <mxGeometry x="261.35" y="378" width="77.5" height="40" as="geometry" />
        </mxCell>
        <mxCell id="7HXTrJapL1t1t9HQIBRs-64" style="edgeStyle=orthogonalEdgeStyle;rounded=0;orthogonalLoop=1;jettySize=auto;html=1;entryX=0.5;entryY=0;entryDx=0;entryDy=0;" edge="1" parent="1" source="7HXTrJapL1t1t9HQIBRs-65" target="7HXTrJapL1t1t9HQIBRs-26">
          <mxGeometry relative="1" as="geometry">
            <Array as="points">
              <mxPoint x="194" y="438" />
            </Array>
          </mxGeometry>
        </mxCell>
        <mxCell id="7HXTrJapL1t1t9HQIBRs-65" value="บันทึกข้อมูล&lt;span style=&quot;font-size: medium; text-align: start;&quot;&gt;&lt;/span&gt;" style="rounded=1;whiteSpace=wrap;html=1;" vertex="1" parent="1">
          <mxGeometry x="170" y="378" width="77.5" height="40" as="geometry" />
        </mxCell>
        <mxCell id="7HXTrJapL1t1t9HQIBRs-66" value="" style="edgeStyle=orthogonalEdgeStyle;rounded=0;orthogonalLoop=1;jettySize=auto;html=1;" edge="1" parent="1" source="7HXTrJapL1t1t9HQIBRs-16" target="7HXTrJapL1t1t9HQIBRs-68">
          <mxGeometry relative="1" as="geometry">
            <mxPoint x="368" y="528" as="sourcePoint" />
            <mxPoint x="328" y="585" as="targetPoint" />
          </mxGeometry>
        </mxCell>
        <mxCell id="7HXTrJapL1t1t9HQIBRs-67" value="ใช่" style="edgeLabel;html=1;align=center;verticalAlign=middle;resizable=0;points=[];" vertex="1" connectable="0" parent="7HXTrJapL1t1t9HQIBRs-66">
          <mxGeometry x="-0.4608" y="1" relative="1" as="geometry">
            <mxPoint as="offset" />
          </mxGeometry>
        </mxCell>
        <mxCell id="7HXTrJapL1t1t9HQIBRs-68" value="สร้างข้อมูล ActivityLog&lt;span style=&quot;font-size: medium; text-align: start;&quot;&gt;&lt;/span&gt;" style="rounded=1;whiteSpace=wrap;html=1;" vertex="1" parent="1">
          <mxGeometry x="261.35" y="508" width="77.5" height="40" as="geometry" />
        </mxCell>
        <mxCell id="7HXTrJapL1t1t9HQIBRs-69" value="" style="edgeStyle=orthogonalEdgeStyle;rounded=0;orthogonalLoop=1;jettySize=auto;html=1;" edge="1" parent="1" source="7HXTrJapL1t1t9HQIBRs-70" target="7HXTrJapL1t1t9HQIBRs-23">
          <mxGeometry relative="1" as="geometry" />
        </mxCell>
        <mxCell id="7HXTrJapL1t1t9HQIBRs-70" value="บันทึกข้อมูล&lt;span style=&quot;font-size: medium; text-align: start;&quot;&gt;&lt;/span&gt;" style="rounded=1;whiteSpace=wrap;html=1;" vertex="1" parent="1">
          <mxGeometry x="263.5" y="580" width="77.5" height="40" as="geometry" />
        </mxCell>
        <mxCell id="7HXTrJapL1t1t9HQIBRs-71" style="edgeStyle=orthogonalEdgeStyle;rounded=0;orthogonalLoop=1;jettySize=auto;html=1;entryX=0.5;entryY=0;entryDx=0;entryDy=0;" edge="1" parent="1" source="7HXTrJapL1t1t9HQIBRs-72" target="7HXTrJapL1t1t9HQIBRs-73">
          <mxGeometry relative="1" as="geometry" />
        </mxCell>
        <mxCell id="7HXTrJapL1t1t9HQIBRs-72" value="บันทึกข้อมูล" style="rounded=1;whiteSpace=wrap;html=1;" vertex="1" parent="1">
          <mxGeometry x="760" y="606" width="77.5" height="40" as="geometry" />
        </mxCell>
        <mxCell id="7HXTrJapL1t1t9HQIBRs-73" value="rerturn Error Code&amp;nbsp;002&lt;span style=&quot;font-size: medium; text-align: start;&quot;&gt;&lt;/span&gt;" style="rounded=1;whiteSpace=wrap;html=1;" vertex="1" parent="1">
          <mxGeometry x="760" y="672" width="77.5" height="40" as="geometry" />
        </mxCell>
        <mxCell id="7HXTrJapL1t1t9HQIBRs-74" value="สร้างข้อมูล ActivityLog&lt;span style=&quot;font-size: medium; text-align: start;&quot;&gt;&lt;/span&gt;" style="rounded=1;whiteSpace=wrap;html=1;" vertex="1" parent="1">
          <mxGeometry x="660" y="606" width="77.5" height="40" as="geometry" />
        </mxCell>
        <mxCell id="7HXTrJapL1t1t9HQIBRs-75" style="edgeStyle=orthogonalEdgeStyle;rounded=0;orthogonalLoop=1;jettySize=auto;html=1;" edge="1" parent="1" source="7HXTrJapL1t1t9HQIBRs-76">
          <mxGeometry relative="1" as="geometry">
            <mxPoint x="910" y="820" as="targetPoint" />
          </mxGeometry>
        </mxCell>
        <mxCell id="7HXTrJapL1t1t9HQIBRs-76" value="rerturn Error Code&amp;nbsp;007&lt;span style=&quot;font-size: medium; text-align: start;&quot;&gt;&lt;/span&gt;" style="rounded=1;whiteSpace=wrap;html=1;" vertex="1" parent="1">
          <mxGeometry x="790" y="800" width="77.5" height="40" as="geometry" />
        </mxCell>
        <mxCell id="7HXTrJapL1t1t9HQIBRs-77" value="สร้างข้อมูล ActivityLog&lt;span style=&quot;font-size: medium; text-align: start;&quot;&gt;&lt;/span&gt;" style="rounded=1;whiteSpace=wrap;html=1;" vertex="1" parent="1">
          <mxGeometry x="685" y="740" width="77.5" height="40" as="geometry" />
        </mxCell>
        <mxCell id="7HXTrJapL1t1t9HQIBRs-78" style="edgeStyle=orthogonalEdgeStyle;rounded=0;orthogonalLoop=1;jettySize=auto;html=1;" edge="1" parent="1" source="7HXTrJapL1t1t9HQIBRs-79" target="7HXTrJapL1t1t9HQIBRs-76">
          <mxGeometry relative="1" as="geometry" />
        </mxCell>
        <mxCell id="7HXTrJapL1t1t9HQIBRs-79" value="บันทึกข้อมูล" style="rounded=1;whiteSpace=wrap;html=1;" vertex="1" parent="1">
          <mxGeometry x="790" y="740" width="77.5" height="40" as="geometry" />
        </mxCell>
        <mxCell id="7HXTrJapL1t1t9HQIBRs-80" style="edgeStyle=orthogonalEdgeStyle;rounded=0;orthogonalLoop=1;jettySize=auto;html=1;" edge="1" parent="1" source="7HXTrJapL1t1t9HQIBRs-81" target="7HXTrJapL1t1t9HQIBRs-53">
          <mxGeometry relative="1" as="geometry">
            <mxPoint x="829" y="990" as="targetPoint" />
          </mxGeometry>
        </mxCell>
        <mxCell id="7HXTrJapL1t1t9HQIBRs-81" value="rerturn Error Code&amp;nbsp;051&lt;span style=&quot;font-size: medium; text-align: start;&quot;&gt;&lt;/span&gt;" style="rounded=1;whiteSpace=wrap;html=1;" vertex="1" parent="1">
          <mxGeometry x="790" y="920" width="77.5" height="40" as="geometry" />
        </mxCell>
        <mxCell id="7HXTrJapL1t1t9HQIBRs-82" style="edgeStyle=orthogonalEdgeStyle;rounded=0;orthogonalLoop=1;jettySize=auto;html=1;entryX=-0.036;entryY=0.462;entryDx=0;entryDy=0;entryPerimeter=0;" edge="1" parent="1" source="7HXTrJapL1t1t9HQIBRs-83" target="7HXTrJapL1t1t9HQIBRs-85">
          <mxGeometry relative="1" as="geometry" />
        </mxCell>
        <mxCell id="7HXTrJapL1t1t9HQIBRs-83" value="สร้างข้อมูล ActivityLog&lt;span style=&quot;font-size: medium; text-align: start;&quot;&gt;&lt;/span&gt;" style="rounded=1;whiteSpace=wrap;html=1;" vertex="1" parent="1">
          <mxGeometry x="682.5" y="860" width="77.5" height="40" as="geometry" />
        </mxCell>
        <mxCell id="7HXTrJapL1t1t9HQIBRs-84" style="edgeStyle=orthogonalEdgeStyle;rounded=0;orthogonalLoop=1;jettySize=auto;html=1;" edge="1" parent="1" source="7HXTrJapL1t1t9HQIBRs-85" target="7HXTrJapL1t1t9HQIBRs-81">
          <mxGeometry relative="1" as="geometry" />
        </mxCell>
        <mxCell id="7HXTrJapL1t1t9HQIBRs-85" value="บันทึกข้อมูล" style="rounded=1;whiteSpace=wrap;html=1;" vertex="1" parent="1">
          <mxGeometry x="790" y="860" width="77.5" height="40" as="geometry" />
        </mxCell>
        <mxCell id="7HXTrJapL1t1t9HQIBRs-86" style="edgeStyle=orthogonalEdgeStyle;rounded=0;orthogonalLoop=1;jettySize=auto;html=1;entryX=1;entryY=0.5;entryDx=0;entryDy=0;" edge="1" parent="1" source="7HXTrJapL1t1t9HQIBRs-88" target="7HXTrJapL1t1t9HQIBRs-121">
          <mxGeometry relative="1" as="geometry">
            <Array as="points">
              <mxPoint x="454" y="1321" />
            </Array>
          </mxGeometry>
        </mxCell>
        <mxCell id="7HXTrJapL1t1t9HQIBRs-87" value="ไม่" style="edgeLabel;html=1;align=center;verticalAlign=middle;resizable=0;points=[];" vertex="1" connectable="0" parent="7HXTrJapL1t1t9HQIBRs-86">
          <mxGeometry x="-0.6813" y="-1" relative="1" as="geometry">
            <mxPoint as="offset" />
          </mxGeometry>
        </mxCell>
        <mxCell id="7HXTrJapL1t1t9HQIBRs-88" value="Picture?" style="rhombus;whiteSpace=wrap;html=1;" vertex="1" parent="1">
          <mxGeometry x="423.72" y="850" width="60" height="60" as="geometry" />
        </mxCell>
        <mxCell id="7HXTrJapL1t1t9HQIBRs-89" style="edgeStyle=orthogonalEdgeStyle;rounded=0;orthogonalLoop=1;jettySize=auto;html=1;entryX=0.5;entryY=0;entryDx=0;entryDy=0;" edge="1" parent="1" source="7HXTrJapL1t1t9HQIBRs-88" target="7HXTrJapL1t1t9HQIBRs-94">
          <mxGeometry relative="1" as="geometry">
            <mxPoint x="453.72" y="945" as="targetPoint" />
          </mxGeometry>
        </mxCell>
        <mxCell id="7HXTrJapL1t1t9HQIBRs-90" value="ใช่" style="edgeLabel;html=1;align=center;verticalAlign=middle;resizable=0;points=[];" vertex="1" connectable="0" parent="7HXTrJapL1t1t9HQIBRs-89">
          <mxGeometry x="-0.1526" y="1" relative="1" as="geometry">
            <mxPoint as="offset" />
          </mxGeometry>
        </mxCell>
        <mxCell id="7HXTrJapL1t1t9HQIBRs-91" value="สิ้นสุด" style="ellipse;whiteSpace=wrap;html=1;" vertex="1" parent="1">
          <mxGeometry x="367" y="1550" width="100" height="50" as="geometry" />
        </mxCell>
        <mxCell id="7HXTrJapL1t1t9HQIBRs-92" style="edgeStyle=orthogonalEdgeStyle;rounded=0;orthogonalLoop=1;jettySize=auto;html=1;" edge="1" parent="1" source="7HXTrJapL1t1t9HQIBRs-93" target="7HXTrJapL1t1t9HQIBRs-91">
          <mxGeometry relative="1" as="geometry">
            <Array as="points">
              <mxPoint x="150" y="1575" />
              <mxPoint x="150" y="1575" />
            </Array>
          </mxGeometry>
        </mxCell>
        <mxCell id="7HXTrJapL1t1t9HQIBRs-93" value="1" style="ellipse;whiteSpace=wrap;html=1;aspect=fixed;" vertex="1" parent="1">
          <mxGeometry x="61.38" y="1550" width="50" height="50" as="geometry" />
        </mxCell>
        <mxCell id="7HXTrJapL1t1t9HQIBRs-94" value="ไฟล&lt;br&gt;รูปภาพ ?" style="rhombus;whiteSpace=wrap;html=1;" vertex="1" parent="1">
          <mxGeometry x="307.6" y="910" width="65" height="65" as="geometry" />
        </mxCell>
        <mxCell id="7HXTrJapL1t1t9HQIBRs-95" style="edgeStyle=orthogonalEdgeStyle;rounded=0;orthogonalLoop=1;jettySize=auto;html=1;" edge="1" parent="1" source="7HXTrJapL1t1t9HQIBRs-97" target="7HXTrJapL1t1t9HQIBRs-119">
          <mxGeometry relative="1" as="geometry">
            <mxPoint x="383.2249999999999" y="1127.5" as="targetPoint" />
          </mxGeometry>
        </mxCell>
        <mxCell id="7HXTrJapL1t1t9HQIBRs-96" value="ไม่" style="edgeLabel;html=1;align=center;verticalAlign=middle;resizable=0;points=[];" vertex="1" connectable="0" parent="7HXTrJapL1t1t9HQIBRs-95">
          <mxGeometry x="-0.6238" y="2" relative="1" as="geometry">
            <mxPoint as="offset" />
          </mxGeometry>
        </mxCell>
        <mxCell id="7HXTrJapL1t1t9HQIBRs-97" value="ขนาดไฟล&lt;br&gt;&amp;nbsp;&amp;gt; 50mb ?" style="rhombus;whiteSpace=wrap;html=1;" vertex="1" parent="1">
          <mxGeometry x="300.1" y="997.5" width="80" height="70" as="geometry" />
        </mxCell>
        <mxCell id="7HXTrJapL1t1t9HQIBRs-98" value="" style="edgeStyle=orthogonalEdgeStyle;rounded=0;orthogonalLoop=1;jettySize=auto;html=1;" edge="1" parent="1" source="7HXTrJapL1t1t9HQIBRs-94" target="7HXTrJapL1t1t9HQIBRs-97">
          <mxGeometry relative="1" as="geometry">
            <Array as="points">
              <mxPoint x="339.1" y="995.5" />
              <mxPoint x="340.1" y="995.5" />
            </Array>
          </mxGeometry>
        </mxCell>
        <mxCell id="7HXTrJapL1t1t9HQIBRs-99" value="ใช่" style="edgeLabel;html=1;align=center;verticalAlign=middle;resizable=0;points=[];" vertex="1" connectable="0" parent="7HXTrJapL1t1t9HQIBRs-98">
          <mxGeometry x="0.4745" y="1" relative="1" as="geometry">
            <mxPoint as="offset" />
          </mxGeometry>
        </mxCell>
        <mxCell id="7HXTrJapL1t1t9HQIBRs-100" value="rerturn Error Code 043&lt;span style=&quot;font-size: medium; text-align: start;&quot;&gt;&lt;/span&gt;" style="rounded=1;whiteSpace=wrap;html=1;" vertex="1" parent="1">
          <mxGeometry x="113.45000000000002" y="992.5" width="77.5" height="40" as="geometry" />
        </mxCell>
        <mxCell id="7HXTrJapL1t1t9HQIBRs-101" value="สร้างข้อมูล ActivityLog&lt;span style=&quot;font-size: medium; text-align: start;&quot;&gt;&lt;/span&gt;" style="rounded=1;whiteSpace=wrap;html=1;" vertex="1" parent="1">
          <mxGeometry x="205.10000000000002" y="922.5" width="77.5" height="40" as="geometry" />
        </mxCell>
        <mxCell id="7HXTrJapL1t1t9HQIBRs-102" style="edgeStyle=orthogonalEdgeStyle;rounded=0;orthogonalLoop=1;jettySize=auto;html=1;" edge="1" parent="1" source="7HXTrJapL1t1t9HQIBRs-94" target="7HXTrJapL1t1t9HQIBRs-101">
          <mxGeometry relative="1" as="geometry" />
        </mxCell>
        <mxCell id="7HXTrJapL1t1t9HQIBRs-103" value="ไม่" style="edgeLabel;html=1;align=center;verticalAlign=middle;resizable=0;points=[];" vertex="1" connectable="0" parent="7HXTrJapL1t1t9HQIBRs-102">
          <mxGeometry x="0.5378" relative="1" as="geometry">
            <mxPoint as="offset" />
          </mxGeometry>
        </mxCell>
        <mxCell id="7HXTrJapL1t1t9HQIBRs-104" value="" style="edgeStyle=orthogonalEdgeStyle;rounded=0;orthogonalLoop=1;jettySize=auto;html=1;entryX=0.5;entryY=0;entryDx=0;entryDy=0;" edge="1" parent="1" source="7HXTrJapL1t1t9HQIBRs-105" target="7HXTrJapL1t1t9HQIBRs-100">
          <mxGeometry relative="1" as="geometry" />
        </mxCell>
        <mxCell id="7HXTrJapL1t1t9HQIBRs-105" value="บันทึกข้อมูล&lt;span style=&quot;font-size: medium; text-align: start;&quot;&gt;&lt;/span&gt;" style="rounded=1;whiteSpace=wrap;html=1;" vertex="1" parent="1">
          <mxGeometry x="99.10000000000002" y="922.5" width="77.5" height="40" as="geometry" />
        </mxCell>
        <mxCell id="7HXTrJapL1t1t9HQIBRs-106" value="" style="edgeStyle=orthogonalEdgeStyle;rounded=0;orthogonalLoop=1;jettySize=auto;html=1;" edge="1" parent="1" source="7HXTrJapL1t1t9HQIBRs-101" target="7HXTrJapL1t1t9HQIBRs-105">
          <mxGeometry relative="1" as="geometry" />
        </mxCell>
        <mxCell id="7HXTrJapL1t1t9HQIBRs-107" value="rerturn Error Code 044&lt;span style=&quot;font-size: medium; text-align: start;&quot;&gt;&lt;/span&gt;" style="rounded=1;whiteSpace=wrap;html=1;" vertex="1" parent="1">
          <mxGeometry x="113.45000000000002" y="1137.5" width="77.5" height="40" as="geometry" />
        </mxCell>
        <mxCell id="7HXTrJapL1t1t9HQIBRs-108" value="สร้างข้อมูล ActivityLog&lt;span style=&quot;font-size: medium; text-align: start;&quot;&gt;&lt;/span&gt;" style="rounded=1;whiteSpace=wrap;html=1;" vertex="1" parent="1">
          <mxGeometry x="215.10000000000002" y="1067.5" width="77.5" height="40" as="geometry" />
        </mxCell>
        <mxCell id="7HXTrJapL1t1t9HQIBRs-109" style="edgeStyle=orthogonalEdgeStyle;rounded=0;orthogonalLoop=1;jettySize=auto;html=1;entryX=0.5;entryY=0;entryDx=0;entryDy=0;" edge="1" parent="1" source="7HXTrJapL1t1t9HQIBRs-97" target="7HXTrJapL1t1t9HQIBRs-108">
          <mxGeometry relative="1" as="geometry" />
        </mxCell>
        <mxCell id="7HXTrJapL1t1t9HQIBRs-110" value="ใช่" style="edgeLabel;html=1;align=center;verticalAlign=middle;resizable=0;points=[];" vertex="1" connectable="0" parent="7HXTrJapL1t1t9HQIBRs-109">
          <mxGeometry x="-0.6182" y="-1" relative="1" as="geometry">
            <mxPoint as="offset" />
          </mxGeometry>
        </mxCell>
        <mxCell id="7HXTrJapL1t1t9HQIBRs-111" style="edgeStyle=orthogonalEdgeStyle;rounded=0;orthogonalLoop=1;jettySize=auto;html=1;" edge="1" parent="1" source="7HXTrJapL1t1t9HQIBRs-112" target="7HXTrJapL1t1t9HQIBRs-107">
          <mxGeometry relative="1" as="geometry" />
        </mxCell>
        <mxCell id="7HXTrJapL1t1t9HQIBRs-112" value="บันทึกข้อมูล&lt;span style=&quot;font-size: medium; text-align: start;&quot;&gt;&lt;/span&gt;" style="rounded=1;whiteSpace=wrap;html=1;" vertex="1" parent="1">
          <mxGeometry x="113.45000000000002" y="1067.5" width="77.5" height="40" as="geometry" />
        </mxCell>
        <mxCell id="7HXTrJapL1t1t9HQIBRs-113" style="edgeStyle=orthogonalEdgeStyle;rounded=0;orthogonalLoop=1;jettySize=auto;html=1;entryX=1;entryY=0.5;entryDx=0;entryDy=0;" edge="1" parent="1" source="7HXTrJapL1t1t9HQIBRs-108" target="7HXTrJapL1t1t9HQIBRs-112">
          <mxGeometry relative="1" as="geometry" />
        </mxCell>
        <mxCell id="7HXTrJapL1t1t9HQIBRs-114" style="edgeStyle=orthogonalEdgeStyle;rounded=0;orthogonalLoop=1;jettySize=auto;html=1;" edge="1" parent="1" source="7HXTrJapL1t1t9HQIBRs-115" target="7HXTrJapL1t1t9HQIBRs-91">
          <mxGeometry relative="1" as="geometry">
            <Array as="points">
              <mxPoint x="230" y="1530" />
              <mxPoint x="380" y="1530" />
            </Array>
          </mxGeometry>
        </mxCell>
        <mxCell id="7HXTrJapL1t1t9HQIBRs-115" value="3" style="ellipse;whiteSpace=wrap;html=1;aspect=fixed;" vertex="1" parent="1">
          <mxGeometry x="205.10000000000002" y="1322.5" width="50" height="50" as="geometry" />
        </mxCell>
        <mxCell id="7HXTrJapL1t1t9HQIBRs-116" style="edgeStyle=orthogonalEdgeStyle;rounded=0;orthogonalLoop=1;jettySize=auto;html=1;entryX=0;entryY=0.5;entryDx=0;entryDy=0;" edge="1" parent="1" source="7HXTrJapL1t1t9HQIBRs-100" target="7HXTrJapL1t1t9HQIBRs-115">
          <mxGeometry relative="1" as="geometry">
            <Array as="points">
              <mxPoint x="61.379999999999995" y="1012.5" />
              <mxPoint x="61.379999999999995" y="1267.5" />
              <mxPoint x="121.38" y="1267.5" />
              <mxPoint x="121.38" y="1347.5" />
            </Array>
          </mxGeometry>
        </mxCell>
        <mxCell id="7HXTrJapL1t1t9HQIBRs-117" style="edgeStyle=orthogonalEdgeStyle;rounded=0;orthogonalLoop=1;jettySize=auto;html=1;entryX=0;entryY=0;entryDx=0;entryDy=0;" edge="1" parent="1" source="7HXTrJapL1t1t9HQIBRs-107" target="7HXTrJapL1t1t9HQIBRs-115">
          <mxGeometry relative="1" as="geometry" />
        </mxCell>
        <mxCell id="7HXTrJapL1t1t9HQIBRs-118" style="edgeStyle=orthogonalEdgeStyle;rounded=0;orthogonalLoop=1;jettySize=auto;html=1;" edge="1" parent="1" source="7HXTrJapL1t1t9HQIBRs-119">
          <mxGeometry relative="1" as="geometry">
            <mxPoint x="385" y="1190.0000000000002" as="targetPoint" />
          </mxGeometry>
        </mxCell>
        <mxCell id="7HXTrJapL1t1t9HQIBRs-119" value="อัปโหลดไฟล์" style="rounded=1;whiteSpace=wrap;html=1;" vertex="1" parent="1">
          <mxGeometry x="285.1" y="1120" width="110" height="42" as="geometry" />
        </mxCell>
        <mxCell id="7HXTrJapL1t1t9HQIBRs-120" value="" style="group" vertex="1" connectable="0" parent="1">
          <mxGeometry x="336.88" y="1300" width="96.25" height="177.5" as="geometry" />
        </mxCell>
        <mxCell id="7HXTrJapL1t1t9HQIBRs-121" value="สร้างหัวข้อการกำกับดูแลกิจการ&lt;span style=&quot;font-size: medium; text-align: start;&quot;&gt;&lt;/span&gt;" style="rounded=1;whiteSpace=wrap;html=1;" vertex="1" parent="7HXTrJapL1t1t9HQIBRs-120">
          <mxGeometry x="-5" width="106.25" height="42.5" as="geometry" />
        </mxCell>
        <mxCell id="7HXTrJapL1t1t9HQIBRs-122" value="สร้างข้อมูล ActivityLog&lt;span style=&quot;font-size: medium; text-align: start;&quot;&gt;&lt;/span&gt;" style="rounded=1;whiteSpace=wrap;html=1;" vertex="1" parent="7HXTrJapL1t1t9HQIBRs-120">
          <mxGeometry x="6.25" y="67.5" width="77.5" height="40" as="geometry" />
        </mxCell>
        <mxCell id="7HXTrJapL1t1t9HQIBRs-123" value="" style="edgeStyle=orthogonalEdgeStyle;rounded=0;orthogonalLoop=1;jettySize=auto;html=1;entryX=0.543;entryY=-0.009;entryDx=0;entryDy=0;entryPerimeter=0;" edge="1" parent="7HXTrJapL1t1t9HQIBRs-120" source="7HXTrJapL1t1t9HQIBRs-121" target="7HXTrJapL1t1t9HQIBRs-122">
          <mxGeometry relative="1" as="geometry" />
        </mxCell>
        <mxCell id="7HXTrJapL1t1t9HQIBRs-124" value="บันทึกข้อมูล&lt;span style=&quot;font-size: medium; text-align: start;&quot;&gt;&lt;/span&gt;" style="rounded=1;whiteSpace=wrap;html=1;" vertex="1" parent="7HXTrJapL1t1t9HQIBRs-120">
          <mxGeometry x="6.25" y="137.5" width="77.5" height="40" as="geometry" />
        </mxCell>
        <mxCell id="7HXTrJapL1t1t9HQIBRs-125" value="" style="edgeStyle=orthogonalEdgeStyle;rounded=0;orthogonalLoop=1;jettySize=auto;html=1;" edge="1" parent="7HXTrJapL1t1t9HQIBRs-120" source="7HXTrJapL1t1t9HQIBRs-122" target="7HXTrJapL1t1t9HQIBRs-124">
          <mxGeometry relative="1" as="geometry" />
        </mxCell>
        <mxCell id="7HXTrJapL1t1t9HQIBRs-126" style="edgeStyle=orthogonalEdgeStyle;rounded=0;orthogonalLoop=1;jettySize=auto;html=1;entryX=0;entryY=1;entryDx=0;entryDy=0;" edge="1" parent="1" source="7HXTrJapL1t1t9HQIBRs-130" target="7HXTrJapL1t1t9HQIBRs-88">
          <mxGeometry relative="1" as="geometry">
            <Array as="points">
              <mxPoint x="430" y="1223" />
              <mxPoint x="430" y="910" />
              <mxPoint x="439" y="910" />
            </Array>
          </mxGeometry>
        </mxCell>
        <mxCell id="7HXTrJapL1t1t9HQIBRs-127" value="ใช่" style="edgeLabel;html=1;align=center;verticalAlign=middle;resizable=0;points=[];" vertex="1" connectable="0" parent="7HXTrJapL1t1t9HQIBRs-126">
          <mxGeometry x="-0.8996" relative="1" as="geometry">
            <mxPoint as="offset" />
          </mxGeometry>
        </mxCell>
        <mxCell id="7HXTrJapL1t1t9HQIBRs-128" style="edgeStyle=orthogonalEdgeStyle;rounded=0;orthogonalLoop=1;jettySize=auto;html=1;" edge="1" parent="1" source="7HXTrJapL1t1t9HQIBRs-130" target="7HXTrJapL1t1t9HQIBRs-121">
          <mxGeometry relative="1" as="geometry" />
        </mxCell>
        <mxCell id="7HXTrJapL1t1t9HQIBRs-129" value="ไม่" style="edgeLabel;html=1;align=center;verticalAlign=middle;resizable=0;points=[];" vertex="1" connectable="0" parent="7HXTrJapL1t1t9HQIBRs-128">
          <mxGeometry x="-0.1659" relative="1" as="geometry">
            <mxPoint y="2" as="offset" />
          </mxGeometry>
        </mxCell>
        <mxCell id="7HXTrJapL1t1t9HQIBRs-130" value="มีไฟล&lt;br&gt;รูปภาพอีกไหม ?" style="rhombus;whiteSpace=wrap;html=1;" vertex="1" parent="1">
          <mxGeometry x="352.5" y="1190" width="65" height="65" as="geometry" />
        </mxCell>
        <mxCell id="7HXTrJapL1t1t9HQIBRs-131" value="" style="edgeStyle=orthogonalEdgeStyle;rounded=0;orthogonalLoop=1;jettySize=auto;html=1;" edge="1" parent="1" source="7HXTrJapL1t1t9HQIBRs-124" target="7HXTrJapL1t1t9HQIBRs-91">
          <mxGeometry relative="1" as="geometry" />
        </mxCell>
      </root>
    </mxGraphModel>
  </diagram>
  <diagram id="W9CFi8s2IqiaaH_YJYi9" name="Page-4">
    <mxGraphModel dx="1434" dy="764" grid="1" gridSize="10" guides="1" tooltips="1" connect="1" arrows="1" fold="1" page="1" pageScale="1" pageWidth="850" pageHeight="1100" math="0" shadow="0">
      <root>
        <mxCell id="0" />
        <mxCell id="1" parent="0" />
        <mxCell id="to5McWwnwIDRPVgOUwAl-1" value="เริ่ม" style="ellipse;whiteSpace=wrap;html=1;" vertex="1" parent="1">
          <mxGeometry x="75" y="20" width="80" height="40" as="geometry" />
        </mxCell>
        <mxCell id="to5McWwnwIDRPVgOUwAl-2" value="ตรวจสอบสิทธิ์การใช้งาน" style="rounded=1;whiteSpace=wrap;html=1;" vertex="1" parent="1">
          <mxGeometry x="45" y="100" width="140" height="30" as="geometry" />
        </mxCell>
        <mxCell id="to5McWwnwIDRPVgOUwAl-3" value="" style="edgeStyle=orthogonalEdgeStyle;rounded=0;orthogonalLoop=1;jettySize=auto;html=1;" edge="1" parent="1" source="to5McWwnwIDRPVgOUwAl-1" target="to5McWwnwIDRPVgOUwAl-2">
          <mxGeometry relative="1" as="geometry" />
        </mxCell>
        <mxCell id="to5McWwnwIDRPVgOUwAl-4" value="มี ?" style="rhombus;whiteSpace=wrap;html=1;" vertex="1" parent="1">
          <mxGeometry x="85" y="160" width="60" height="60" as="geometry" />
        </mxCell>
        <mxCell id="to5McWwnwIDRPVgOUwAl-5" value="" style="edgeStyle=orthogonalEdgeStyle;rounded=0;orthogonalLoop=1;jettySize=auto;html=1;" edge="1" parent="1" source="to5McWwnwIDRPVgOUwAl-2" target="to5McWwnwIDRPVgOUwAl-4">
          <mxGeometry relative="1" as="geometry" />
        </mxCell>
        <mxCell id="to5McWwnwIDRPVgOUwAl-6" style="edgeStyle=orthogonalEdgeStyle;rounded=0;orthogonalLoop=1;jettySize=auto;html=1;entryX=-0.022;entryY=0.676;entryDx=0;entryDy=0;entryPerimeter=0;" edge="1" parent="1" source="to5McWwnwIDRPVgOUwAl-4" target="to5McWwnwIDRPVgOUwAl-19">
          <mxGeometry relative="1" as="geometry">
            <Array as="points">
              <mxPoint x="115" y="696" />
            </Array>
            <mxPoint x="270" y="730" as="targetPoint" />
          </mxGeometry>
        </mxCell>
        <mxCell id="to5McWwnwIDRPVgOUwAl-7" value="ไม่" style="edgeLabel;html=1;align=center;verticalAlign=middle;resizable=0;points=[];" vertex="1" connectable="0" parent="to5McWwnwIDRPVgOUwAl-6">
          <mxGeometry x="-0.8925" y="1" relative="1" as="geometry">
            <mxPoint as="offset" />
          </mxGeometry>
        </mxCell>
        <mxCell id="to5McWwnwIDRPVgOUwAl-8" value="ตรวจสอบ Account &lt;br&gt;สถานะการใช้งาน" style="rounded=1;whiteSpace=wrap;html=1;" vertex="1" parent="1">
          <mxGeometry x="261.35" y="169" width="170" height="40" as="geometry" />
        </mxCell>
        <mxCell id="to5McWwnwIDRPVgOUwAl-9" value="" style="edgeStyle=orthogonalEdgeStyle;rounded=0;orthogonalLoop=1;jettySize=auto;html=1;" edge="1" parent="1" source="to5McWwnwIDRPVgOUwAl-4" target="to5McWwnwIDRPVgOUwAl-8">
          <mxGeometry relative="1" as="geometry">
            <Array as="points">
              <mxPoint x="225" y="190" />
              <mxPoint x="225" y="190" />
            </Array>
          </mxGeometry>
        </mxCell>
        <mxCell id="to5McWwnwIDRPVgOUwAl-10" value="ใช่" style="edgeLabel;html=1;align=center;verticalAlign=middle;resizable=0;points=[];" vertex="1" connectable="0" parent="to5McWwnwIDRPVgOUwAl-9">
          <mxGeometry x="-0.7797" y="-1" relative="1" as="geometry">
            <mxPoint as="offset" />
          </mxGeometry>
        </mxCell>
        <mxCell id="to5McWwnwIDRPVgOUwAl-11" value="มีใน&lt;br&gt;ระบบ &lt;br&gt;?" style="rhombus;whiteSpace=wrap;html=1;" vertex="1" parent="1">
          <mxGeometry x="339" y="248" width="75" height="70" as="geometry" />
        </mxCell>
        <mxCell id="to5McWwnwIDRPVgOUwAl-12" value="" style="edgeStyle=orthogonalEdgeStyle;rounded=0;orthogonalLoop=1;jettySize=auto;html=1;" edge="1" parent="1" source="to5McWwnwIDRPVgOUwAl-8" target="to5McWwnwIDRPVgOUwAl-11">
          <mxGeometry relative="1" as="geometry" />
        </mxCell>
        <mxCell id="to5McWwnwIDRPVgOUwAl-13" value="status&lt;br style=&quot;border-color: var(--border-color);&quot;&gt;= 1 ?" style="rhombus;whiteSpace=wrap;html=1;" vertex="1" parent="1">
          <mxGeometry x="367" y="368" width="60" height="60" as="geometry" />
        </mxCell>
        <mxCell id="to5McWwnwIDRPVgOUwAl-14" value="" style="edgeStyle=orthogonalEdgeStyle;rounded=0;orthogonalLoop=1;jettySize=auto;html=1;" edge="1" parent="1" source="to5McWwnwIDRPVgOUwAl-11" target="to5McWwnwIDRPVgOUwAl-13">
          <mxGeometry relative="1" as="geometry" />
        </mxCell>
        <mxCell id="to5McWwnwIDRPVgOUwAl-15" value="ใช่" style="edgeLabel;html=1;align=center;verticalAlign=middle;resizable=0;points=[];" vertex="1" connectable="0" parent="to5McWwnwIDRPVgOUwAl-14">
          <mxGeometry x="-0.3254" y="2" relative="1" as="geometry">
            <mxPoint x="-2" as="offset" />
          </mxGeometry>
        </mxCell>
        <mxCell id="to5McWwnwIDRPVgOUwAl-16" value="Locked&lt;br style=&quot;border-color: var(--border-color);&quot;&gt;= 1 ?&amp;nbsp;" style="rhombus;whiteSpace=wrap;html=1;" vertex="1" parent="1">
          <mxGeometry x="367.75" y="498" width="60" height="60" as="geometry" />
        </mxCell>
        <mxCell id="to5McWwnwIDRPVgOUwAl-17" value="" style="edgeStyle=orthogonalEdgeStyle;rounded=0;orthogonalLoop=1;jettySize=auto;html=1;" edge="1" parent="1" source="to5McWwnwIDRPVgOUwAl-13" target="to5McWwnwIDRPVgOUwAl-16">
          <mxGeometry relative="1" as="geometry" />
        </mxCell>
        <mxCell id="to5McWwnwIDRPVgOUwAl-18" value="ไม่" style="edgeLabel;html=1;align=center;verticalAlign=middle;resizable=0;points=[];" vertex="1" connectable="0" parent="to5McWwnwIDRPVgOUwAl-17">
          <mxGeometry x="-0.3745" relative="1" as="geometry">
            <mxPoint as="offset" />
          </mxGeometry>
        </mxCell>
        <mxCell id="to5McWwnwIDRPVgOUwAl-19" value="1" style="ellipse;whiteSpace=wrap;html=1;aspect=fixed;" vertex="1" parent="1">
          <mxGeometry x="197.5" y="662" width="50" height="50" as="geometry" />
        </mxCell>
        <mxCell id="to5McWwnwIDRPVgOUwAl-20" style="edgeStyle=orthogonalEdgeStyle;rounded=0;orthogonalLoop=1;jettySize=auto;html=1;exitX=0.492;exitY=0.949;exitDx=0;exitDy=0;exitPerimeter=0;" edge="1" parent="1" source="to5McWwnwIDRPVgOUwAl-21" target="to5McWwnwIDRPVgOUwAl-19">
          <mxGeometry relative="1" as="geometry">
            <Array as="points">
              <mxPoint x="166" y="376" />
              <mxPoint x="150" y="376" />
              <mxPoint x="150" y="680" />
            </Array>
          </mxGeometry>
        </mxCell>
        <mxCell id="to5McWwnwIDRPVgOUwAl-21" value="rerturn Error Code&amp;nbsp;001&lt;span style=&quot;font-size: medium; text-align: start;&quot;&gt;&lt;/span&gt;" style="rounded=1;whiteSpace=wrap;html=1;" vertex="1" parent="1">
          <mxGeometry x="127.5" y="328" width="77.5" height="40" as="geometry" />
        </mxCell>
        <mxCell id="to5McWwnwIDRPVgOUwAl-22" style="edgeStyle=orthogonalEdgeStyle;rounded=0;orthogonalLoop=1;jettySize=auto;html=1;entryX=1;entryY=1;entryDx=0;entryDy=0;" edge="1" parent="1" source="to5McWwnwIDRPVgOUwAl-23" target="to5McWwnwIDRPVgOUwAl-19">
          <mxGeometry relative="1" as="geometry">
            <Array as="points">
              <mxPoint x="302" y="705" />
              <mxPoint x="244" y="705" />
            </Array>
          </mxGeometry>
        </mxCell>
        <mxCell id="to5McWwnwIDRPVgOUwAl-23" value="rerturn Error Code&amp;nbsp;011&lt;span style=&quot;font-size: medium; text-align: start;&quot;&gt;&lt;/span&gt;" style="rounded=1;whiteSpace=wrap;html=1;" vertex="1" parent="1">
          <mxGeometry x="263.5" y="646" width="77.5" height="40" as="geometry" />
        </mxCell>
        <mxCell id="to5McWwnwIDRPVgOUwAl-24" value="" style="edgeStyle=orthogonalEdgeStyle;rounded=0;orthogonalLoop=1;jettySize=auto;html=1;entryX=0.467;entryY=0.027;entryDx=0;entryDy=0;entryPerimeter=0;" edge="1" parent="1" source="to5McWwnwIDRPVgOUwAl-67" target="to5McWwnwIDRPVgOUwAl-69">
          <mxGeometry relative="1" as="geometry" />
        </mxCell>
        <mxCell id="to5McWwnwIDRPVgOUwAl-25" style="edgeStyle=orthogonalEdgeStyle;rounded=0;orthogonalLoop=1;jettySize=auto;html=1;" edge="1" parent="1" source="to5McWwnwIDRPVgOUwAl-26" target="to5McWwnwIDRPVgOUwAl-19">
          <mxGeometry relative="1" as="geometry">
            <mxPoint x="190" y="630" as="targetPoint" />
            <Array as="points">
              <mxPoint x="209" y="660" />
              <mxPoint x="209" y="660" />
            </Array>
          </mxGeometry>
        </mxCell>
        <mxCell id="to5McWwnwIDRPVgOUwAl-26" value="rerturn Error Code&amp;nbsp;004&lt;span style=&quot;font-size: medium; text-align: start;&quot;&gt;&lt;/span&gt;" style="rounded=1;whiteSpace=wrap;html=1;" vertex="1" parent="1">
          <mxGeometry x="170" y="468" width="77.5" height="40" as="geometry" />
        </mxCell>
        <mxCell id="to5McWwnwIDRPVgOUwAl-27" value="" style="edgeStyle=orthogonalEdgeStyle;rounded=0;orthogonalLoop=1;jettySize=auto;html=1;" edge="1" parent="1" source="to5McWwnwIDRPVgOUwAl-13" target="to5McWwnwIDRPVgOUwAl-62">
          <mxGeometry relative="1" as="geometry">
            <mxPoint x="300" y="380" as="targetPoint" />
          </mxGeometry>
        </mxCell>
        <mxCell id="to5McWwnwIDRPVgOUwAl-28" value="ใช่" style="edgeLabel;html=1;align=center;verticalAlign=middle;resizable=0;points=[];" vertex="1" connectable="0" parent="to5McWwnwIDRPVgOUwAl-27">
          <mxGeometry x="-0.4608" y="2" relative="1" as="geometry">
            <mxPoint as="offset" />
          </mxGeometry>
        </mxCell>
        <mxCell id="to5McWwnwIDRPVgOUwAl-29" value="" style="edgeStyle=orthogonalEdgeStyle;rounded=0;orthogonalLoop=1;jettySize=auto;html=1;entryX=0.1;entryY=0.5;entryDx=0;entryDy=0;entryPerimeter=0;" edge="1" parent="1" source="to5McWwnwIDRPVgOUwAl-16" target="to5McWwnwIDRPVgOUwAl-33">
          <mxGeometry relative="1" as="geometry">
            <mxPoint x="419" y="528" as="targetPoint" />
            <Array as="points">
              <mxPoint x="460" y="528" />
              <mxPoint x="460" y="354" />
            </Array>
          </mxGeometry>
        </mxCell>
        <mxCell id="to5McWwnwIDRPVgOUwAl-30" value="" style="edgeStyle=orthogonalEdgeStyle;rounded=0;orthogonalLoop=1;jettySize=auto;html=1;" edge="1" parent="1" source="to5McWwnwIDRPVgOUwAl-33" target="to5McWwnwIDRPVgOUwAl-34">
          <mxGeometry relative="1" as="geometry">
            <mxPoint x="535" y="528" as="targetPoint" />
            <Array as="points">
              <mxPoint x="590" y="354" />
            </Array>
          </mxGeometry>
        </mxCell>
        <mxCell id="to5McWwnwIDRPVgOUwAl-31" value="ไม่" style="edgeLabel;html=1;align=center;verticalAlign=middle;resizable=0;points=[];" vertex="1" connectable="0" parent="to5McWwnwIDRPVgOUwAl-30">
          <mxGeometry x="-0.3115" y="3" relative="1" as="geometry">
            <mxPoint as="offset" />
          </mxGeometry>
        </mxCell>
        <mxCell id="to5McWwnwIDRPVgOUwAl-32" style="edgeStyle=orthogonalEdgeStyle;rounded=0;orthogonalLoop=1;jettySize=auto;html=1;" edge="1" parent="1" source="to5McWwnwIDRPVgOUwAl-33" target="to5McWwnwIDRPVgOUwAl-133">
          <mxGeometry relative="1" as="geometry">
            <Array as="points">
              <mxPoint x="509" y="570" />
              <mxPoint x="466" y="570" />
            </Array>
          </mxGeometry>
        </mxCell>
        <mxCell id="to5McWwnwIDRPVgOUwAl-33" value="Super&lt;br&gt;Admin ?" style="rhombus;whiteSpace=wrap;html=1;" vertex="1" parent="1">
          <mxGeometry x="476.25" y="318" width="66" height="72" as="geometry" />
        </mxCell>
        <mxCell id="to5McWwnwIDRPVgOUwAl-34" value="ตรวจสอบสิทธิ์การใช้งาน Company นี้ไหม&lt;span style=&quot;font-size: medium; text-align: start;&quot;&gt;&lt;/span&gt;" style="rounded=1;whiteSpace=wrap;html=1;" vertex="1" parent="1">
          <mxGeometry x="535" y="508" width="110" height="42" as="geometry" />
        </mxCell>
        <mxCell id="to5McWwnwIDRPVgOUwAl-35" value="มี ?" style="rhombus;whiteSpace=wrap;html=1;" vertex="1" parent="1">
          <mxGeometry x="557" y="590" width="66" height="72" as="geometry" />
        </mxCell>
        <mxCell id="to5McWwnwIDRPVgOUwAl-36" value="" style="edgeStyle=orthogonalEdgeStyle;rounded=0;orthogonalLoop=1;jettySize=auto;html=1;" edge="1" parent="1" source="to5McWwnwIDRPVgOUwAl-34" target="to5McWwnwIDRPVgOUwAl-35">
          <mxGeometry relative="1" as="geometry" />
        </mxCell>
        <mxCell id="to5McWwnwIDRPVgOUwAl-37" value="Company &lt;br&gt;มีในระบบ&lt;br&gt;ไหม ?" style="rhombus;whiteSpace=wrap;html=1;" vertex="1" parent="1">
          <mxGeometry x="545" y="720" width="90" height="80" as="geometry" />
        </mxCell>
        <mxCell id="to5McWwnwIDRPVgOUwAl-38" value="" style="edgeStyle=orthogonalEdgeStyle;rounded=0;orthogonalLoop=1;jettySize=auto;html=1;" edge="1" parent="1" source="to5McWwnwIDRPVgOUwAl-35" target="to5McWwnwIDRPVgOUwAl-37">
          <mxGeometry relative="1" as="geometry" />
        </mxCell>
        <mxCell id="to5McWwnwIDRPVgOUwAl-39" value="ใช่" style="edgeLabel;html=1;align=center;verticalAlign=middle;resizable=0;points=[];" vertex="1" connectable="0" parent="to5McWwnwIDRPVgOUwAl-38">
          <mxGeometry x="-0.2859" relative="1" as="geometry">
            <mxPoint as="offset" />
          </mxGeometry>
        </mxCell>
        <mxCell id="to5McWwnwIDRPVgOUwAl-40" style="edgeStyle=orthogonalEdgeStyle;rounded=0;orthogonalLoop=1;jettySize=auto;html=1;" edge="1" parent="1">
          <mxGeometry relative="1" as="geometry">
            <mxPoint x="737.5" y="626" as="sourcePoint" />
            <mxPoint x="760" y="626" as="targetPoint" />
          </mxGeometry>
        </mxCell>
        <mxCell id="to5McWwnwIDRPVgOUwAl-41" style="edgeStyle=orthogonalEdgeStyle;rounded=0;orthogonalLoop=1;jettySize=auto;html=1;" edge="1" parent="1" source="to5McWwnwIDRPVgOUwAl-35">
          <mxGeometry relative="1" as="geometry">
            <mxPoint x="660" y="626" as="targetPoint" />
          </mxGeometry>
        </mxCell>
        <mxCell id="to5McWwnwIDRPVgOUwAl-42" value="ไม่" style="edgeLabel;html=1;align=center;verticalAlign=middle;resizable=0;points=[];" vertex="1" connectable="0" parent="to5McWwnwIDRPVgOUwAl-41">
          <mxGeometry x="-0.0865" y="2" relative="1" as="geometry">
            <mxPoint as="offset" />
          </mxGeometry>
        </mxCell>
        <mxCell id="to5McWwnwIDRPVgOUwAl-43" style="edgeStyle=orthogonalEdgeStyle;rounded=0;orthogonalLoop=1;jettySize=auto;html=1;entryX=1;entryY=0.5;entryDx=0;entryDy=0;" edge="1" parent="1" source="to5McWwnwIDRPVgOUwAl-45" target="to5McWwnwIDRPVgOUwAl-133">
          <mxGeometry relative="1" as="geometry">
            <Array as="points">
              <mxPoint x="540" y="880" />
              <mxPoint x="540" y="690" />
            </Array>
          </mxGeometry>
        </mxCell>
        <mxCell id="to5McWwnwIDRPVgOUwAl-44" value="ใช่" style="edgeLabel;html=1;align=center;verticalAlign=middle;resizable=0;points=[];" vertex="1" connectable="0" parent="to5McWwnwIDRPVgOUwAl-43">
          <mxGeometry x="-0.0994" relative="1" as="geometry">
            <mxPoint as="offset" />
          </mxGeometry>
        </mxCell>
        <mxCell id="to5McWwnwIDRPVgOUwAl-45" value="Company &lt;br&gt;Active ?" style="rhombus;whiteSpace=wrap;html=1;" vertex="1" parent="1">
          <mxGeometry x="545" y="840" width="90" height="80" as="geometry" />
        </mxCell>
        <mxCell id="to5McWwnwIDRPVgOUwAl-46" value="ใช่" style="edgeStyle=orthogonalEdgeStyle;rounded=0;orthogonalLoop=1;jettySize=auto;html=1;" edge="1" parent="1" source="to5McWwnwIDRPVgOUwAl-37" target="to5McWwnwIDRPVgOUwAl-45">
          <mxGeometry relative="1" as="geometry" />
        </mxCell>
        <mxCell id="to5McWwnwIDRPVgOUwAl-47" value="" style="edgeStyle=orthogonalEdgeStyle;rounded=0;orthogonalLoop=1;jettySize=auto;html=1;" edge="1" parent="1" source="to5McWwnwIDRPVgOUwAl-37">
          <mxGeometry relative="1" as="geometry">
            <mxPoint x="685" y="760" as="targetPoint" />
          </mxGeometry>
        </mxCell>
        <mxCell id="to5McWwnwIDRPVgOUwAl-48" value="ไม่" style="edgeLabel;html=1;align=center;verticalAlign=middle;resizable=0;points=[];" vertex="1" connectable="0" parent="to5McWwnwIDRPVgOUwAl-47">
          <mxGeometry x="-0.1127" relative="1" as="geometry">
            <mxPoint as="offset" />
          </mxGeometry>
        </mxCell>
        <mxCell id="to5McWwnwIDRPVgOUwAl-49" value="" style="edgeStyle=orthogonalEdgeStyle;rounded=0;orthogonalLoop=1;jettySize=auto;html=1;" edge="1" parent="1" source="to5McWwnwIDRPVgOUwAl-45" target="to5McWwnwIDRPVgOUwAl-82">
          <mxGeometry relative="1" as="geometry">
            <mxPoint x="685" y="880" as="targetPoint" />
          </mxGeometry>
        </mxCell>
        <mxCell id="to5McWwnwIDRPVgOUwAl-50" value="ไม่" style="edgeLabel;html=1;align=center;verticalAlign=middle;resizable=0;points=[];" vertex="1" connectable="0" parent="to5McWwnwIDRPVgOUwAl-49">
          <mxGeometry x="-0.2152" y="2" relative="1" as="geometry">
            <mxPoint as="offset" />
          </mxGeometry>
        </mxCell>
        <mxCell id="to5McWwnwIDRPVgOUwAl-51" style="edgeStyle=orthogonalEdgeStyle;rounded=0;orthogonalLoop=1;jettySize=auto;html=1;entryX=1;entryY=0.5;entryDx=0;entryDy=0;" edge="1" parent="1" source="to5McWwnwIDRPVgOUwAl-52" target="to5McWwnwIDRPVgOUwAl-90">
          <mxGeometry relative="1" as="geometry" />
        </mxCell>
        <mxCell id="to5McWwnwIDRPVgOUwAl-52" value="2" style="ellipse;whiteSpace=wrap;html=1;aspect=fixed;" vertex="1" parent="1">
          <mxGeometry x="698.75" y="970" width="50" height="50" as="geometry" />
        </mxCell>
        <mxCell id="to5McWwnwIDRPVgOUwAl-53" style="edgeStyle=orthogonalEdgeStyle;rounded=0;orthogonalLoop=1;jettySize=auto;html=1;entryX=1;entryY=0.5;entryDx=0;entryDy=0;" edge="1" parent="1" source="to5McWwnwIDRPVgOUwAl-72" target="to5McWwnwIDRPVgOUwAl-52">
          <mxGeometry relative="1" as="geometry">
            <mxPoint x="785" y="780" as="targetPoint" />
            <Array as="points">
              <mxPoint x="910" y="692" />
              <mxPoint x="910" y="995" />
            </Array>
            <mxPoint x="800.0285714285715" y="646" as="sourcePoint" />
          </mxGeometry>
        </mxCell>
        <mxCell id="to5McWwnwIDRPVgOUwAl-54" style="edgeStyle=orthogonalEdgeStyle;rounded=0;orthogonalLoop=1;jettySize=auto;html=1;entryX=0;entryY=0.5;entryDx=0;entryDy=0;" edge="1" parent="1" target="to5McWwnwIDRPVgOUwAl-78">
          <mxGeometry relative="1" as="geometry">
            <Array as="points">
              <mxPoint x="780" y="760" />
              <mxPoint x="780" y="760" />
            </Array>
            <mxPoint x="762.5" y="760.037037037037" as="sourcePoint" />
          </mxGeometry>
        </mxCell>
        <mxCell id="to5McWwnwIDRPVgOUwAl-55" value="" style="edgeStyle=orthogonalEdgeStyle;rounded=0;orthogonalLoop=1;jettySize=auto;html=1;entryX=0.5;entryY=0;entryDx=0;entryDy=0;" edge="1" parent="1" source="to5McWwnwIDRPVgOUwAl-56" target="to5McWwnwIDRPVgOUwAl-21">
          <mxGeometry relative="1" as="geometry" />
        </mxCell>
        <mxCell id="to5McWwnwIDRPVgOUwAl-56" value="บันทึกข้อมูล&lt;span style=&quot;font-size: medium; text-align: start;&quot;&gt;&lt;/span&gt;" style="rounded=1;whiteSpace=wrap;html=1;" vertex="1" parent="1">
          <mxGeometry x="127.5" y="263" width="77.5" height="40" as="geometry" />
        </mxCell>
        <mxCell id="to5McWwnwIDRPVgOUwAl-57" value="" style="edgeStyle=orthogonalEdgeStyle;rounded=0;orthogonalLoop=1;jettySize=auto;html=1;" edge="1" parent="1" source="to5McWwnwIDRPVgOUwAl-11" target="to5McWwnwIDRPVgOUwAl-60">
          <mxGeometry relative="1" as="geometry">
            <mxPoint x="159" y="338" as="targetPoint" />
            <mxPoint x="309" y="283" as="sourcePoint" />
          </mxGeometry>
        </mxCell>
        <mxCell id="to5McWwnwIDRPVgOUwAl-58" value="ไม่" style="edgeLabel;html=1;align=center;verticalAlign=middle;resizable=0;points=[];" vertex="1" connectable="0" parent="to5McWwnwIDRPVgOUwAl-57">
          <mxGeometry x="-0.6573" y="2" relative="1" as="geometry">
            <mxPoint as="offset" />
          </mxGeometry>
        </mxCell>
        <mxCell id="to5McWwnwIDRPVgOUwAl-59" style="edgeStyle=orthogonalEdgeStyle;rounded=0;orthogonalLoop=1;jettySize=auto;html=1;" edge="1" parent="1" source="to5McWwnwIDRPVgOUwAl-60" target="to5McWwnwIDRPVgOUwAl-56">
          <mxGeometry relative="1" as="geometry" />
        </mxCell>
        <mxCell id="to5McWwnwIDRPVgOUwAl-60" value="สร้างข้อมูล ActivityLog&lt;span style=&quot;font-size: medium; text-align: start;&quot;&gt;&lt;/span&gt;" style="rounded=1;whiteSpace=wrap;html=1;" vertex="1" parent="1">
          <mxGeometry x="230" y="263" width="77.5" height="40" as="geometry" />
        </mxCell>
        <mxCell id="to5McWwnwIDRPVgOUwAl-61" style="edgeStyle=orthogonalEdgeStyle;rounded=0;orthogonalLoop=1;jettySize=auto;html=1;" edge="1" parent="1" source="to5McWwnwIDRPVgOUwAl-62" target="to5McWwnwIDRPVgOUwAl-64">
          <mxGeometry relative="1" as="geometry" />
        </mxCell>
        <mxCell id="to5McWwnwIDRPVgOUwAl-62" value="สร้างข้อมูล ActivityLog&lt;span style=&quot;font-size: medium; text-align: start;&quot;&gt;&lt;/span&gt;" style="rounded=1;whiteSpace=wrap;html=1;" vertex="1" parent="1">
          <mxGeometry x="261.35" y="378" width="77.5" height="40" as="geometry" />
        </mxCell>
        <mxCell id="to5McWwnwIDRPVgOUwAl-63" style="edgeStyle=orthogonalEdgeStyle;rounded=0;orthogonalLoop=1;jettySize=auto;html=1;entryX=0.5;entryY=0;entryDx=0;entryDy=0;" edge="1" parent="1" source="to5McWwnwIDRPVgOUwAl-64" target="to5McWwnwIDRPVgOUwAl-26">
          <mxGeometry relative="1" as="geometry">
            <Array as="points">
              <mxPoint x="194" y="438" />
            </Array>
          </mxGeometry>
        </mxCell>
        <mxCell id="to5McWwnwIDRPVgOUwAl-64" value="บันทึกข้อมูล&lt;span style=&quot;font-size: medium; text-align: start;&quot;&gt;&lt;/span&gt;" style="rounded=1;whiteSpace=wrap;html=1;" vertex="1" parent="1">
          <mxGeometry x="170" y="378" width="77.5" height="40" as="geometry" />
        </mxCell>
        <mxCell id="to5McWwnwIDRPVgOUwAl-65" value="" style="edgeStyle=orthogonalEdgeStyle;rounded=0;orthogonalLoop=1;jettySize=auto;html=1;" edge="1" parent="1" source="to5McWwnwIDRPVgOUwAl-16" target="to5McWwnwIDRPVgOUwAl-67">
          <mxGeometry relative="1" as="geometry">
            <mxPoint x="368" y="528" as="sourcePoint" />
            <mxPoint x="328" y="585" as="targetPoint" />
          </mxGeometry>
        </mxCell>
        <mxCell id="to5McWwnwIDRPVgOUwAl-66" value="ใช่" style="edgeLabel;html=1;align=center;verticalAlign=middle;resizable=0;points=[];" vertex="1" connectable="0" parent="to5McWwnwIDRPVgOUwAl-65">
          <mxGeometry x="-0.4608" y="1" relative="1" as="geometry">
            <mxPoint as="offset" />
          </mxGeometry>
        </mxCell>
        <mxCell id="to5McWwnwIDRPVgOUwAl-67" value="สร้างข้อมูล ActivityLog&lt;span style=&quot;font-size: medium; text-align: start;&quot;&gt;&lt;/span&gt;" style="rounded=1;whiteSpace=wrap;html=1;" vertex="1" parent="1">
          <mxGeometry x="261.35" y="508" width="77.5" height="40" as="geometry" />
        </mxCell>
        <mxCell id="to5McWwnwIDRPVgOUwAl-68" value="" style="edgeStyle=orthogonalEdgeStyle;rounded=0;orthogonalLoop=1;jettySize=auto;html=1;" edge="1" parent="1" source="to5McWwnwIDRPVgOUwAl-69" target="to5McWwnwIDRPVgOUwAl-23">
          <mxGeometry relative="1" as="geometry" />
        </mxCell>
        <mxCell id="to5McWwnwIDRPVgOUwAl-69" value="บันทึกข้อมูล&lt;span style=&quot;font-size: medium; text-align: start;&quot;&gt;&lt;/span&gt;" style="rounded=1;whiteSpace=wrap;html=1;" vertex="1" parent="1">
          <mxGeometry x="263.5" y="580" width="77.5" height="40" as="geometry" />
        </mxCell>
        <mxCell id="to5McWwnwIDRPVgOUwAl-70" style="edgeStyle=orthogonalEdgeStyle;rounded=0;orthogonalLoop=1;jettySize=auto;html=1;entryX=0.5;entryY=0;entryDx=0;entryDy=0;" edge="1" parent="1" source="to5McWwnwIDRPVgOUwAl-71" target="to5McWwnwIDRPVgOUwAl-72">
          <mxGeometry relative="1" as="geometry" />
        </mxCell>
        <mxCell id="to5McWwnwIDRPVgOUwAl-71" value="บันทึกข้อมูล" style="rounded=1;whiteSpace=wrap;html=1;" vertex="1" parent="1">
          <mxGeometry x="760" y="606" width="77.5" height="40" as="geometry" />
        </mxCell>
        <mxCell id="to5McWwnwIDRPVgOUwAl-72" value="rerturn Error Code&amp;nbsp;002&lt;span style=&quot;font-size: medium; text-align: start;&quot;&gt;&lt;/span&gt;" style="rounded=1;whiteSpace=wrap;html=1;" vertex="1" parent="1">
          <mxGeometry x="760" y="672" width="77.5" height="40" as="geometry" />
        </mxCell>
        <mxCell id="to5McWwnwIDRPVgOUwAl-73" value="สร้างข้อมูล ActivityLog&lt;span style=&quot;font-size: medium; text-align: start;&quot;&gt;&lt;/span&gt;" style="rounded=1;whiteSpace=wrap;html=1;" vertex="1" parent="1">
          <mxGeometry x="660" y="606" width="77.5" height="40" as="geometry" />
        </mxCell>
        <mxCell id="to5McWwnwIDRPVgOUwAl-74" style="edgeStyle=orthogonalEdgeStyle;rounded=0;orthogonalLoop=1;jettySize=auto;html=1;" edge="1" parent="1" source="to5McWwnwIDRPVgOUwAl-75">
          <mxGeometry relative="1" as="geometry">
            <mxPoint x="910" y="820" as="targetPoint" />
          </mxGeometry>
        </mxCell>
        <mxCell id="to5McWwnwIDRPVgOUwAl-75" value="rerturn Error Code&amp;nbsp;007&lt;span style=&quot;font-size: medium; text-align: start;&quot;&gt;&lt;/span&gt;" style="rounded=1;whiteSpace=wrap;html=1;" vertex="1" parent="1">
          <mxGeometry x="790" y="800" width="77.5" height="40" as="geometry" />
        </mxCell>
        <mxCell id="to5McWwnwIDRPVgOUwAl-76" value="สร้างข้อมูล ActivityLog&lt;span style=&quot;font-size: medium; text-align: start;&quot;&gt;&lt;/span&gt;" style="rounded=1;whiteSpace=wrap;html=1;" vertex="1" parent="1">
          <mxGeometry x="685" y="740" width="77.5" height="40" as="geometry" />
        </mxCell>
        <mxCell id="to5McWwnwIDRPVgOUwAl-77" style="edgeStyle=orthogonalEdgeStyle;rounded=0;orthogonalLoop=1;jettySize=auto;html=1;" edge="1" parent="1" source="to5McWwnwIDRPVgOUwAl-78" target="to5McWwnwIDRPVgOUwAl-75">
          <mxGeometry relative="1" as="geometry" />
        </mxCell>
        <mxCell id="to5McWwnwIDRPVgOUwAl-78" value="บันทึกข้อมูล" style="rounded=1;whiteSpace=wrap;html=1;" vertex="1" parent="1">
          <mxGeometry x="790" y="740" width="77.5" height="40" as="geometry" />
        </mxCell>
        <mxCell id="to5McWwnwIDRPVgOUwAl-79" style="edgeStyle=orthogonalEdgeStyle;rounded=0;orthogonalLoop=1;jettySize=auto;html=1;" edge="1" parent="1" source="to5McWwnwIDRPVgOUwAl-80" target="to5McWwnwIDRPVgOUwAl-52">
          <mxGeometry relative="1" as="geometry">
            <mxPoint x="829" y="990" as="targetPoint" />
          </mxGeometry>
        </mxCell>
        <mxCell id="to5McWwnwIDRPVgOUwAl-80" value="rerturn Error Code&amp;nbsp;051&lt;span style=&quot;font-size: medium; text-align: start;&quot;&gt;&lt;/span&gt;" style="rounded=1;whiteSpace=wrap;html=1;" vertex="1" parent="1">
          <mxGeometry x="790" y="920" width="77.5" height="40" as="geometry" />
        </mxCell>
        <mxCell id="to5McWwnwIDRPVgOUwAl-81" style="edgeStyle=orthogonalEdgeStyle;rounded=0;orthogonalLoop=1;jettySize=auto;html=1;entryX=-0.036;entryY=0.462;entryDx=0;entryDy=0;entryPerimeter=0;" edge="1" parent="1" source="to5McWwnwIDRPVgOUwAl-82" target="to5McWwnwIDRPVgOUwAl-84">
          <mxGeometry relative="1" as="geometry" />
        </mxCell>
        <mxCell id="to5McWwnwIDRPVgOUwAl-82" value="สร้างข้อมูล ActivityLog&lt;span style=&quot;font-size: medium; text-align: start;&quot;&gt;&lt;/span&gt;" style="rounded=1;whiteSpace=wrap;html=1;" vertex="1" parent="1">
          <mxGeometry x="682.5" y="860" width="77.5" height="40" as="geometry" />
        </mxCell>
        <mxCell id="to5McWwnwIDRPVgOUwAl-83" style="edgeStyle=orthogonalEdgeStyle;rounded=0;orthogonalLoop=1;jettySize=auto;html=1;" edge="1" parent="1" source="to5McWwnwIDRPVgOUwAl-84" target="to5McWwnwIDRPVgOUwAl-80">
          <mxGeometry relative="1" as="geometry" />
        </mxCell>
        <mxCell id="to5McWwnwIDRPVgOUwAl-84" value="บันทึกข้อมูล" style="rounded=1;whiteSpace=wrap;html=1;" vertex="1" parent="1">
          <mxGeometry x="790" y="860" width="77.5" height="40" as="geometry" />
        </mxCell>
        <mxCell id="to5McWwnwIDRPVgOUwAl-85" style="edgeStyle=orthogonalEdgeStyle;rounded=0;orthogonalLoop=1;jettySize=auto;html=1;entryX=1;entryY=0.5;entryDx=0;entryDy=0;" edge="1" parent="1" source="to5McWwnwIDRPVgOUwAl-87" target="to5McWwnwIDRPVgOUwAl-120">
          <mxGeometry relative="1" as="geometry">
            <Array as="points">
              <mxPoint x="454" y="1321" />
            </Array>
          </mxGeometry>
        </mxCell>
        <mxCell id="to5McWwnwIDRPVgOUwAl-86" value="ไม่" style="edgeLabel;html=1;align=center;verticalAlign=middle;resizable=0;points=[];" vertex="1" connectable="0" parent="to5McWwnwIDRPVgOUwAl-85">
          <mxGeometry x="-0.6813" y="-1" relative="1" as="geometry">
            <mxPoint as="offset" />
          </mxGeometry>
        </mxCell>
        <mxCell id="to5McWwnwIDRPVgOUwAl-87" value="Picture?" style="rhombus;whiteSpace=wrap;html=1;" vertex="1" parent="1">
          <mxGeometry x="423.72" y="850" width="60" height="60" as="geometry" />
        </mxCell>
        <mxCell id="to5McWwnwIDRPVgOUwAl-88" style="edgeStyle=orthogonalEdgeStyle;rounded=0;orthogonalLoop=1;jettySize=auto;html=1;entryX=0.5;entryY=0;entryDx=0;entryDy=0;" edge="1" parent="1" source="to5McWwnwIDRPVgOUwAl-87" target="to5McWwnwIDRPVgOUwAl-93">
          <mxGeometry relative="1" as="geometry">
            <mxPoint x="453.72" y="945" as="targetPoint" />
          </mxGeometry>
        </mxCell>
        <mxCell id="to5McWwnwIDRPVgOUwAl-89" value="ใช่" style="edgeLabel;html=1;align=center;verticalAlign=middle;resizable=0;points=[];" vertex="1" connectable="0" parent="to5McWwnwIDRPVgOUwAl-88">
          <mxGeometry x="-0.1526" y="1" relative="1" as="geometry">
            <mxPoint as="offset" />
          </mxGeometry>
        </mxCell>
        <mxCell id="to5McWwnwIDRPVgOUwAl-90" value="สิ้นสุด" style="ellipse;whiteSpace=wrap;html=1;" vertex="1" parent="1">
          <mxGeometry x="367" y="1550" width="100" height="50" as="geometry" />
        </mxCell>
        <mxCell id="to5McWwnwIDRPVgOUwAl-91" style="edgeStyle=orthogonalEdgeStyle;rounded=0;orthogonalLoop=1;jettySize=auto;html=1;" edge="1" parent="1" source="to5McWwnwIDRPVgOUwAl-92" target="to5McWwnwIDRPVgOUwAl-90">
          <mxGeometry relative="1" as="geometry">
            <Array as="points">
              <mxPoint x="150" y="1575" />
              <mxPoint x="150" y="1575" />
            </Array>
          </mxGeometry>
        </mxCell>
        <mxCell id="to5McWwnwIDRPVgOUwAl-92" value="1" style="ellipse;whiteSpace=wrap;html=1;aspect=fixed;" vertex="1" parent="1">
          <mxGeometry x="61.38" y="1550" width="50" height="50" as="geometry" />
        </mxCell>
        <mxCell id="to5McWwnwIDRPVgOUwAl-93" value="ไฟล&lt;br&gt;รูปภาพ ?" style="rhombus;whiteSpace=wrap;html=1;" vertex="1" parent="1">
          <mxGeometry x="307.6" y="910" width="65" height="65" as="geometry" />
        </mxCell>
        <mxCell id="to5McWwnwIDRPVgOUwAl-94" style="edgeStyle=orthogonalEdgeStyle;rounded=0;orthogonalLoop=1;jettySize=auto;html=1;" edge="1" parent="1" source="to5McWwnwIDRPVgOUwAl-96" target="to5McWwnwIDRPVgOUwAl-118">
          <mxGeometry relative="1" as="geometry">
            <mxPoint x="383.2249999999999" y="1127.5" as="targetPoint" />
          </mxGeometry>
        </mxCell>
        <mxCell id="to5McWwnwIDRPVgOUwAl-95" value="ไม่" style="edgeLabel;html=1;align=center;verticalAlign=middle;resizable=0;points=[];" vertex="1" connectable="0" parent="to5McWwnwIDRPVgOUwAl-94">
          <mxGeometry x="-0.6238" y="2" relative="1" as="geometry">
            <mxPoint as="offset" />
          </mxGeometry>
        </mxCell>
        <mxCell id="to5McWwnwIDRPVgOUwAl-96" value="ขนาดไฟล&lt;br&gt;&amp;nbsp;&amp;gt; 50mb ?" style="rhombus;whiteSpace=wrap;html=1;" vertex="1" parent="1">
          <mxGeometry x="300.1" y="997.5" width="80" height="70" as="geometry" />
        </mxCell>
        <mxCell id="to5McWwnwIDRPVgOUwAl-97" value="" style="edgeStyle=orthogonalEdgeStyle;rounded=0;orthogonalLoop=1;jettySize=auto;html=1;" edge="1" parent="1" source="to5McWwnwIDRPVgOUwAl-93" target="to5McWwnwIDRPVgOUwAl-96">
          <mxGeometry relative="1" as="geometry">
            <Array as="points">
              <mxPoint x="339.1" y="995.5" />
              <mxPoint x="340.1" y="995.5" />
            </Array>
          </mxGeometry>
        </mxCell>
        <mxCell id="to5McWwnwIDRPVgOUwAl-98" value="ใช่" style="edgeLabel;html=1;align=center;verticalAlign=middle;resizable=0;points=[];" vertex="1" connectable="0" parent="to5McWwnwIDRPVgOUwAl-97">
          <mxGeometry x="0.4745" y="1" relative="1" as="geometry">
            <mxPoint as="offset" />
          </mxGeometry>
        </mxCell>
        <mxCell id="to5McWwnwIDRPVgOUwAl-99" value="rerturn Error Code 043&lt;span style=&quot;font-size: medium; text-align: start;&quot;&gt;&lt;/span&gt;" style="rounded=1;whiteSpace=wrap;html=1;" vertex="1" parent="1">
          <mxGeometry x="113.45000000000002" y="992.5" width="77.5" height="40" as="geometry" />
        </mxCell>
        <mxCell id="to5McWwnwIDRPVgOUwAl-100" value="สร้างข้อมูล ActivityLog&lt;span style=&quot;font-size: medium; text-align: start;&quot;&gt;&lt;/span&gt;" style="rounded=1;whiteSpace=wrap;html=1;" vertex="1" parent="1">
          <mxGeometry x="205.10000000000002" y="922.5" width="77.5" height="40" as="geometry" />
        </mxCell>
        <mxCell id="to5McWwnwIDRPVgOUwAl-101" style="edgeStyle=orthogonalEdgeStyle;rounded=0;orthogonalLoop=1;jettySize=auto;html=1;" edge="1" parent="1" source="to5McWwnwIDRPVgOUwAl-93" target="to5McWwnwIDRPVgOUwAl-100">
          <mxGeometry relative="1" as="geometry" />
        </mxCell>
        <mxCell id="to5McWwnwIDRPVgOUwAl-102" value="ไม่" style="edgeLabel;html=1;align=center;verticalAlign=middle;resizable=0;points=[];" vertex="1" connectable="0" parent="to5McWwnwIDRPVgOUwAl-101">
          <mxGeometry x="0.5378" relative="1" as="geometry">
            <mxPoint as="offset" />
          </mxGeometry>
        </mxCell>
        <mxCell id="to5McWwnwIDRPVgOUwAl-103" value="" style="edgeStyle=orthogonalEdgeStyle;rounded=0;orthogonalLoop=1;jettySize=auto;html=1;entryX=0.5;entryY=0;entryDx=0;entryDy=0;" edge="1" parent="1" source="to5McWwnwIDRPVgOUwAl-104" target="to5McWwnwIDRPVgOUwAl-99">
          <mxGeometry relative="1" as="geometry" />
        </mxCell>
        <mxCell id="to5McWwnwIDRPVgOUwAl-104" value="บันทึกข้อมูล&lt;span style=&quot;font-size: medium; text-align: start;&quot;&gt;&lt;/span&gt;" style="rounded=1;whiteSpace=wrap;html=1;" vertex="1" parent="1">
          <mxGeometry x="99.10000000000002" y="922.5" width="77.5" height="40" as="geometry" />
        </mxCell>
        <mxCell id="to5McWwnwIDRPVgOUwAl-105" value="" style="edgeStyle=orthogonalEdgeStyle;rounded=0;orthogonalLoop=1;jettySize=auto;html=1;" edge="1" parent="1" source="to5McWwnwIDRPVgOUwAl-100" target="to5McWwnwIDRPVgOUwAl-104">
          <mxGeometry relative="1" as="geometry" />
        </mxCell>
        <mxCell id="to5McWwnwIDRPVgOUwAl-106" value="rerturn Error Code 044&lt;span style=&quot;font-size: medium; text-align: start;&quot;&gt;&lt;/span&gt;" style="rounded=1;whiteSpace=wrap;html=1;" vertex="1" parent="1">
          <mxGeometry x="113.45000000000002" y="1137.5" width="77.5" height="40" as="geometry" />
        </mxCell>
        <mxCell id="to5McWwnwIDRPVgOUwAl-107" value="สร้างข้อมูล ActivityLog&lt;span style=&quot;font-size: medium; text-align: start;&quot;&gt;&lt;/span&gt;" style="rounded=1;whiteSpace=wrap;html=1;" vertex="1" parent="1">
          <mxGeometry x="215.10000000000002" y="1067.5" width="77.5" height="40" as="geometry" />
        </mxCell>
        <mxCell id="to5McWwnwIDRPVgOUwAl-108" style="edgeStyle=orthogonalEdgeStyle;rounded=0;orthogonalLoop=1;jettySize=auto;html=1;entryX=0.5;entryY=0;entryDx=0;entryDy=0;" edge="1" parent="1" source="to5McWwnwIDRPVgOUwAl-96" target="to5McWwnwIDRPVgOUwAl-107">
          <mxGeometry relative="1" as="geometry" />
        </mxCell>
        <mxCell id="to5McWwnwIDRPVgOUwAl-109" value="ใช่" style="edgeLabel;html=1;align=center;verticalAlign=middle;resizable=0;points=[];" vertex="1" connectable="0" parent="to5McWwnwIDRPVgOUwAl-108">
          <mxGeometry x="-0.6182" y="-1" relative="1" as="geometry">
            <mxPoint as="offset" />
          </mxGeometry>
        </mxCell>
        <mxCell id="to5McWwnwIDRPVgOUwAl-110" style="edgeStyle=orthogonalEdgeStyle;rounded=0;orthogonalLoop=1;jettySize=auto;html=1;" edge="1" parent="1" source="to5McWwnwIDRPVgOUwAl-111" target="to5McWwnwIDRPVgOUwAl-106">
          <mxGeometry relative="1" as="geometry" />
        </mxCell>
        <mxCell id="to5McWwnwIDRPVgOUwAl-111" value="บันทึกข้อมูล&lt;span style=&quot;font-size: medium; text-align: start;&quot;&gt;&lt;/span&gt;" style="rounded=1;whiteSpace=wrap;html=1;" vertex="1" parent="1">
          <mxGeometry x="113.45000000000002" y="1067.5" width="77.5" height="40" as="geometry" />
        </mxCell>
        <mxCell id="to5McWwnwIDRPVgOUwAl-112" style="edgeStyle=orthogonalEdgeStyle;rounded=0;orthogonalLoop=1;jettySize=auto;html=1;entryX=1;entryY=0.5;entryDx=0;entryDy=0;" edge="1" parent="1" source="to5McWwnwIDRPVgOUwAl-107" target="to5McWwnwIDRPVgOUwAl-111">
          <mxGeometry relative="1" as="geometry" />
        </mxCell>
        <mxCell id="to5McWwnwIDRPVgOUwAl-113" style="edgeStyle=orthogonalEdgeStyle;rounded=0;orthogonalLoop=1;jettySize=auto;html=1;" edge="1" parent="1" source="to5McWwnwIDRPVgOUwAl-114" target="to5McWwnwIDRPVgOUwAl-90">
          <mxGeometry relative="1" as="geometry">
            <Array as="points">
              <mxPoint x="230" y="1530" />
              <mxPoint x="380" y="1530" />
            </Array>
          </mxGeometry>
        </mxCell>
        <mxCell id="to5McWwnwIDRPVgOUwAl-114" value="3" style="ellipse;whiteSpace=wrap;html=1;aspect=fixed;" vertex="1" parent="1">
          <mxGeometry x="205.10000000000002" y="1322.5" width="50" height="50" as="geometry" />
        </mxCell>
        <mxCell id="to5McWwnwIDRPVgOUwAl-115" style="edgeStyle=orthogonalEdgeStyle;rounded=0;orthogonalLoop=1;jettySize=auto;html=1;entryX=0;entryY=0.5;entryDx=0;entryDy=0;" edge="1" parent="1" source="to5McWwnwIDRPVgOUwAl-99" target="to5McWwnwIDRPVgOUwAl-114">
          <mxGeometry relative="1" as="geometry">
            <Array as="points">
              <mxPoint x="61.379999999999995" y="1012.5" />
              <mxPoint x="61.379999999999995" y="1267.5" />
              <mxPoint x="121.38" y="1267.5" />
              <mxPoint x="121.38" y="1347.5" />
            </Array>
          </mxGeometry>
        </mxCell>
        <mxCell id="to5McWwnwIDRPVgOUwAl-116" style="edgeStyle=orthogonalEdgeStyle;rounded=0;orthogonalLoop=1;jettySize=auto;html=1;entryX=0;entryY=0;entryDx=0;entryDy=0;" edge="1" parent="1" source="to5McWwnwIDRPVgOUwAl-106" target="to5McWwnwIDRPVgOUwAl-114">
          <mxGeometry relative="1" as="geometry" />
        </mxCell>
        <mxCell id="to5McWwnwIDRPVgOUwAl-117" style="edgeStyle=orthogonalEdgeStyle;rounded=0;orthogonalLoop=1;jettySize=auto;html=1;" edge="1" parent="1" source="to5McWwnwIDRPVgOUwAl-118">
          <mxGeometry relative="1" as="geometry">
            <mxPoint x="385" y="1190.0000000000002" as="targetPoint" />
          </mxGeometry>
        </mxCell>
        <mxCell id="to5McWwnwIDRPVgOUwAl-118" value="อัปโหลดไฟล์" style="rounded=1;whiteSpace=wrap;html=1;" vertex="1" parent="1">
          <mxGeometry x="285.1" y="1120" width="110" height="42" as="geometry" />
        </mxCell>
        <mxCell id="to5McWwnwIDRPVgOUwAl-119" value="" style="group" vertex="1" connectable="0" parent="1">
          <mxGeometry x="336.88" y="1300" width="96.25" height="177.5" as="geometry" />
        </mxCell>
        <mxCell id="to5McWwnwIDRPVgOUwAl-120" value="สร้างหัวข้อการกำกับดูแลกิจการ&lt;span style=&quot;font-size: medium; text-align: start;&quot;&gt;&lt;/span&gt;" style="rounded=1;whiteSpace=wrap;html=1;" vertex="1" parent="to5McWwnwIDRPVgOUwAl-119">
          <mxGeometry x="-5" width="106.25" height="42.5" as="geometry" />
        </mxCell>
        <mxCell id="to5McWwnwIDRPVgOUwAl-121" value="สร้างข้อมูล ActivityLog&lt;span style=&quot;font-size: medium; text-align: start;&quot;&gt;&lt;/span&gt;" style="rounded=1;whiteSpace=wrap;html=1;" vertex="1" parent="to5McWwnwIDRPVgOUwAl-119">
          <mxGeometry x="6.25" y="67.5" width="77.5" height="40" as="geometry" />
        </mxCell>
        <mxCell id="to5McWwnwIDRPVgOUwAl-122" value="" style="edgeStyle=orthogonalEdgeStyle;rounded=0;orthogonalLoop=1;jettySize=auto;html=1;entryX=0.543;entryY=-0.009;entryDx=0;entryDy=0;entryPerimeter=0;" edge="1" parent="to5McWwnwIDRPVgOUwAl-119" source="to5McWwnwIDRPVgOUwAl-120" target="to5McWwnwIDRPVgOUwAl-121">
          <mxGeometry relative="1" as="geometry" />
        </mxCell>
        <mxCell id="to5McWwnwIDRPVgOUwAl-123" value="บันทึกข้อมูล&lt;span style=&quot;font-size: medium; text-align: start;&quot;&gt;&lt;/span&gt;" style="rounded=1;whiteSpace=wrap;html=1;" vertex="1" parent="to5McWwnwIDRPVgOUwAl-119">
          <mxGeometry x="6.25" y="137.5" width="77.5" height="40" as="geometry" />
        </mxCell>
        <mxCell id="to5McWwnwIDRPVgOUwAl-124" value="" style="edgeStyle=orthogonalEdgeStyle;rounded=0;orthogonalLoop=1;jettySize=auto;html=1;" edge="1" parent="to5McWwnwIDRPVgOUwAl-119" source="to5McWwnwIDRPVgOUwAl-121" target="to5McWwnwIDRPVgOUwAl-123">
          <mxGeometry relative="1" as="geometry" />
        </mxCell>
        <mxCell id="to5McWwnwIDRPVgOUwAl-125" style="edgeStyle=orthogonalEdgeStyle;rounded=0;orthogonalLoop=1;jettySize=auto;html=1;entryX=0;entryY=1;entryDx=0;entryDy=0;" edge="1" parent="1" source="to5McWwnwIDRPVgOUwAl-129" target="to5McWwnwIDRPVgOUwAl-87">
          <mxGeometry relative="1" as="geometry">
            <Array as="points">
              <mxPoint x="430" y="1223" />
              <mxPoint x="430" y="910" />
              <mxPoint x="439" y="910" />
            </Array>
          </mxGeometry>
        </mxCell>
        <mxCell id="to5McWwnwIDRPVgOUwAl-126" value="ใช่" style="edgeLabel;html=1;align=center;verticalAlign=middle;resizable=0;points=[];" vertex="1" connectable="0" parent="to5McWwnwIDRPVgOUwAl-125">
          <mxGeometry x="-0.8996" relative="1" as="geometry">
            <mxPoint as="offset" />
          </mxGeometry>
        </mxCell>
        <mxCell id="to5McWwnwIDRPVgOUwAl-127" style="edgeStyle=orthogonalEdgeStyle;rounded=0;orthogonalLoop=1;jettySize=auto;html=1;" edge="1" parent="1" source="to5McWwnwIDRPVgOUwAl-129" target="to5McWwnwIDRPVgOUwAl-120">
          <mxGeometry relative="1" as="geometry" />
        </mxCell>
        <mxCell id="to5McWwnwIDRPVgOUwAl-128" value="ไม่" style="edgeLabel;html=1;align=center;verticalAlign=middle;resizable=0;points=[];" vertex="1" connectable="0" parent="to5McWwnwIDRPVgOUwAl-127">
          <mxGeometry x="-0.1659" relative="1" as="geometry">
            <mxPoint y="2" as="offset" />
          </mxGeometry>
        </mxCell>
        <mxCell id="to5McWwnwIDRPVgOUwAl-129" value="มีไฟล&lt;br&gt;รูปภาพอีกไหม ?" style="rhombus;whiteSpace=wrap;html=1;" vertex="1" parent="1">
          <mxGeometry x="352.5" y="1190" width="65" height="65" as="geometry" />
        </mxCell>
        <mxCell id="to5McWwnwIDRPVgOUwAl-130" value="" style="edgeStyle=orthogonalEdgeStyle;rounded=0;orthogonalLoop=1;jettySize=auto;html=1;" edge="1" parent="1" source="to5McWwnwIDRPVgOUwAl-123" target="to5McWwnwIDRPVgOUwAl-90">
          <mxGeometry relative="1" as="geometry" />
        </mxCell>
        <mxCell id="to5McWwnwIDRPVgOUwAl-131" value="" style="edgeStyle=orthogonalEdgeStyle;rounded=0;orthogonalLoop=1;jettySize=auto;html=1;entryX=0.5;entryY=0;entryDx=0;entryDy=0;" edge="1" parent="1" source="to5McWwnwIDRPVgOUwAl-134" target="to5McWwnwIDRPVgOUwAl-87">
          <mxGeometry relative="1" as="geometry">
            <mxPoint x="501.5431034482758" y="810" as="targetPoint" />
          </mxGeometry>
        </mxCell>
        <mxCell id="to5McWwnwIDRPVgOUwAl-132" value="ใช่" style="edgeLabel;html=1;align=center;verticalAlign=middle;resizable=0;points=[];" vertex="1" connectable="0" parent="to5McWwnwIDRPVgOUwAl-131">
          <mxGeometry x="-0.3989" y="-1" relative="1" as="geometry">
            <mxPoint y="2" as="offset" />
          </mxGeometry>
        </mxCell>
        <mxCell id="to5McWwnwIDRPVgOUwAl-133" value="ดึงหัวข้อการกำกับดูแลกิจการ" style="rounded=1;whiteSpace=wrap;html=1;" vertex="1" parent="1">
          <mxGeometry x="405.75" y="670" width="120" height="40" as="geometry" />
        </mxCell>
        <mxCell id="to5McWwnwIDRPVgOUwAl-134" value="มี?" style="rhombus;whiteSpace=wrap;html=1;" vertex="1" parent="1">
          <mxGeometry x="441.5" y="740" width="48.5" height="40" as="geometry" />
        </mxCell>
        <mxCell id="to5McWwnwIDRPVgOUwAl-135" value="" style="edgeStyle=orthogonalEdgeStyle;rounded=0;orthogonalLoop=1;jettySize=auto;html=1;" edge="1" parent="1" source="to5McWwnwIDRPVgOUwAl-133" target="to5McWwnwIDRPVgOUwAl-134">
          <mxGeometry relative="1" as="geometry" />
        </mxCell>
        <mxCell id="to5McWwnwIDRPVgOUwAl-136" style="edgeStyle=orthogonalEdgeStyle;rounded=0;orthogonalLoop=1;jettySize=auto;html=1;entryX=0;entryY=1;entryDx=0;entryDy=0;" edge="1" parent="1" source="to5McWwnwIDRPVgOUwAl-137" target="to5McWwnwIDRPVgOUwAl-19">
          <mxGeometry relative="1" as="geometry">
            <mxPoint x="266.75" y="672" as="targetPoint" />
            <Array as="points">
              <mxPoint x="160" y="705" />
            </Array>
          </mxGeometry>
        </mxCell>
        <mxCell id="to5McWwnwIDRPVgOUwAl-137" value="return Error code 123" style="rounded=1;whiteSpace=wrap;html=1;" vertex="1" parent="1">
          <mxGeometry x="105" y="770" width="80" height="50" as="geometry" />
        </mxCell>
        <mxCell id="to5McWwnwIDRPVgOUwAl-138" style="edgeStyle=orthogonalEdgeStyle;rounded=0;orthogonalLoop=1;jettySize=auto;html=1;" edge="1" parent="1" source="to5McWwnwIDRPVgOUwAl-141" target="to5McWwnwIDRPVgOUwAl-137">
          <mxGeometry relative="1" as="geometry" />
        </mxCell>
        <mxCell id="to5McWwnwIDRPVgOUwAl-139" value="" style="edgeStyle=orthogonalEdgeStyle;rounded=0;orthogonalLoop=1;jettySize=auto;html=1;" edge="1" parent="1" source="to5McWwnwIDRPVgOUwAl-134" target="to5McWwnwIDRPVgOUwAl-141">
          <mxGeometry relative="1" as="geometry">
            <mxPoint x="441.75" y="760" as="sourcePoint" />
            <mxPoint x="293.75" y="745" as="targetPoint" />
          </mxGeometry>
        </mxCell>
        <mxCell id="to5McWwnwIDRPVgOUwAl-140" value="ไม่" style="edgeLabel;html=1;align=center;verticalAlign=middle;resizable=0;points=[];" vertex="1" connectable="0" parent="to5McWwnwIDRPVgOUwAl-139">
          <mxGeometry x="-0.7326" relative="1" as="geometry">
            <mxPoint as="offset" />
          </mxGeometry>
        </mxCell>
        <mxCell id="to5McWwnwIDRPVgOUwAl-141" value="สร้างข้อมูล ActivityLog&lt;span style=&quot;font-size: medium; text-align: start;&quot;&gt;&lt;/span&gt;" style="rounded=1;whiteSpace=wrap;html=1;" vertex="1" parent="1">
          <mxGeometry x="328.25" y="780" width="77.5" height="40" as="geometry" />
        </mxCell>
        <mxCell id="to5McWwnwIDRPVgOUwAl-142" value="บันทึกข้อมูล&lt;span style=&quot;font-size: medium; text-align: start;&quot;&gt;&lt;/span&gt;" style="rounded=1;whiteSpace=wrap;html=1;" vertex="1" parent="1">
          <mxGeometry x="228.75" y="780" width="77.5" height="40" as="geometry" />
        </mxCell>
      </root>
    </mxGraphModel>
  </diagram>
</mxfile>
